<?xml version="1.0" encoding="UTF-8" standalone="no"?>
<!-- Created with Inkscape (http://www.inkscape.org/) -->

<svg
   xmlns:dc="http://purl.org/dc/elements/1.1/"
   xmlns:cc="http://creativecommons.org/ns#"
   xmlns:rdf="http://www.w3.org/1999/02/22-rdf-syntax-ns#"
   xmlns:svg="http://www.w3.org/2000/svg"
   xmlns="http://www.w3.org/2000/svg"
   xmlns:sodipodi="http://sodipodi.sourceforge.net/DTD/sodipodi-0.dtd"
   xmlns:inkscape="http://www.inkscape.org/namespaces/inkscape"
   id="svg2"
   version="1.1"
   inkscape:version="0.48.5 r10040"
   width="1213.1025"
   height="835.65137"
   xml:space="preserve"
   sodipodi:docname="ulticontroller-case.svg"><metadata
     id="metadata8"><rdf:RDF><cc:Work
         rdf:about=""><dc:format>image/svg+xml</dc:format><dc:type
           rdf:resource="http://purl.org/dc/dcmitype/StillImage" /><dc:title></dc:title></cc:Work></rdf:RDF></metadata><defs
     id="defs6"><clipPath
       clipPathUnits="userSpaceOnUse"
       id="clipPath22"><path
         d="m 0,861.73 1726.3,0 L 1726.3,0 0,0 0,861.73 z"
         id="path24"
         inkscape:connector-curvature="0" /></clipPath></defs><sodipodi:namedview
     pagecolor="#ffffff"
     bordercolor="#666666"
     borderopacity="1"
     objecttolerance="10"
     gridtolerance="10"
     guidetolerance="10"
     inkscape:pageopacity="0"
     inkscape:pageshadow="2"
     inkscape:window-width="1920"
     inkscape:window-height="1003"
     id="namedview4"
     showgrid="false"
     inkscape:zoom="0.43561374"
     inkscape:cx="461.80715"
     inkscape:cy="581.19102"
     inkscape:window-x="-4"
     inkscape:window-y="-3"
     inkscape:window-maximized="1"
     inkscape:current-layer="g10"
     fit-margin-top="0"
     fit-margin-left="0"
     fit-margin-right="0"
     fit-margin-bottom="0" /><g
     id="g10"
     inkscape:groupmode="layer"
     inkscape:label="23138_0_ulticontrollerV3"
     transform="matrix(1.25,0,0,-1.25,-465.45625,946.793)"><g
       id="g12"
       transform="translate(1090.4883,394.0059)"
       style="stroke:#ff0000;stroke-width:2.4000001"><path
         d="m 0,0 0,-22.047 -8.504,0 0,-22.047 8.504,0 0,-22.048 -8.504,0 0,-22.046 8.504,0 0,-22.048 -8.504,0 0,-22.047 8.504,0 0,-22.047 -8.504,0 0,-13.544 -13.094,0 0,-8.504 -21.597,0 0,8.504 -21.598,0 0,-8.504 -21.596,0 0,8.504 -21.597,0 0,-8.504 -21.598,0 0,8.504 -21.598,0 0,-8.504 -21.597,0 0,8.504 -21.596,0 0,-8.504 -21.598,0 0,8.504 -21.597,0 0,-8.504 -21.598,0 0,8.504 -21.597,0 0,-8.504 -21.597,0 0,8.504 -21.597,0 0,-8.504 -21.598,0 0,8.504 -21.597,0 0,-8.504 -21.597,0 0,8.504 -21.598,0 0,-8.504 -21.597,0 0,8.504 -13.094,0 0,13.544 -8.503,0 0,22.047 8.503,0 0,22.047 -8.503,0 0,22.048 8.503,0 0,22.046 -8.503,0 0,22.048 8.503,0 0,22.047 -8.503,0 0,22.047 8.503,0 0,13.544 13.094,0 0,8.504 21.597,0 0,-8.504 21.598,0 0,8.504 21.597,0 0,-8.504 21.597,0 0,8.504 21.598,0 0,-8.504 21.597,0 0,8.504 21.597,0 0,-8.504 21.597,0 0,8.504 21.598,0 0,-8.504 21.597,0 0,8.504 21.598,0 0,-8.504 21.596,0 0,8.504 21.597,0 0,-8.504 21.598,0 0,8.504 21.598,0 0,-8.504 21.597,0 0,8.504 21.596,0 0,-8.504 21.598,0 0,8.504 21.597,0 0,-8.504 13.094,0 L -8.504,0 0,0 z"
         style="fill:none;stroke:#ff0000;stroke-width:2.4000001;stroke-linecap:butt;stroke-linejoin:miter;stroke-miterlimit:10;stroke-opacity:1;stroke-dasharray:none"
         id="path14"
         inkscape:connector-curvature="0" /></g><path
       d="m 939,275.136 -226.771,0 0,76.535 226.771,0 0,-76.535 z"
       style="fill:none;stroke:#ff0000;stroke-width:2.4000001;stroke-linecap:butt;stroke-linejoin:miter;stroke-miterlimit:10;stroke-opacity:1;stroke-dasharray:none"
       id="path16"
       inkscape:connector-curvature="0" /><g
       id="g18"
       style="stroke:#ff0000;stroke-width:2.4000001"><g
         id="g20"
         clip-path="url(#clipPath22)"
         style="stroke:#ff0000;stroke-width:2.4000001"><g
           id="g26"
           transform="translate(1053.6377,321.0937)"
           style="stroke:#ff0000;stroke-width:2.4000001"><path
             d="m 0,0 c 0,-12.525 -10.154,-22.678 -22.678,-22.678 -12.523,0 -22.676,10.153 -22.676,22.678 0,12.524 10.153,22.677 22.676,22.677 C -10.154,22.677 0,12.524 0,0 z"
             style="fill:none;stroke:#ff0000;stroke-width:2.4000001;stroke-linecap:butt;stroke-linejoin:miter;stroke-miterlimit:10;stroke-opacity:1;stroke-dasharray:none"
             id="path28"
             inkscape:connector-curvature="0" /></g><path
           d="m 564.677,279.671 -8.504,0 0,70.866 8.504,0 0,-70.866 z"
           style="fill:none;stroke:#ff0000;stroke-width:2.4000001;stroke-linecap:butt;stroke-linejoin:miter;stroke-miterlimit:10;stroke-opacity:1;stroke-dasharray:none"
           id="path30"
           inkscape:connector-curvature="0" /><path
           d="m 905.409,98.719 -141.732,0 0,25.512 141.732,0 0,-25.512 z"
           style="fill:none;stroke:#ff0000;stroke-width:2.4000001;stroke-linecap:butt;stroke-linejoin:miter;stroke-miterlimit:10;stroke-opacity:1;stroke-dasharray:none"
           id="path32"
           inkscape:connector-curvature="0" /><g
           id="g34"
           transform="translate(1089.9209,148.6953)"
           style="stroke:#ff0000;stroke-width:2.4000001"><path
             d="m 0,0 0,-29.291 -8.504,0 0,-29.291 -13.093,0 0,8.504 -21.597,0 0,-8.504 -21.598,0 0,8.504 -21.597,0 0,-8.504 -21.597,0 0,8.504 -21.598,0 0,-8.504 -21.597,0 0,8.504 -21.597,0 0,-8.504 -21.597,0 0,8.504 -21.598,0 0,-8.504 -21.597,0 0,8.504 -21.597,0 0,-8.504 -21.598,0 0,8.504 -21.597,0 0,-8.504 -21.597,0 0,8.504 -21.598,0 0,-8.504 -21.597,0 0,8.504 -21.597,0 0,-8.504 -21.598,0 0,8.504 -21.597,0 0,-8.504 -21.597,0 0,29.291 8.504,0 0,29.291 -8.504,0 0,29.291 21.597,0 0,-8.504 21.597,0 0,8.504 21.598,0 0,-8.504 21.597,0 0,8.504 21.597,0 0,-8.504 21.598,0 0,8.504 21.597,0 0,-8.504 21.597,0 0,8.504 21.598,0 0,-8.504 21.597,0 0,8.504 21.597,0 0,-8.504 21.598,0 0,8.504 21.597,0 0,-8.504 21.597,0 0,8.504 21.597,0 0,-8.504 21.598,0 0,8.504 21.597,0 0,-8.504 21.597,0 0,8.504 21.598,0 0,-8.504 21.597,0 0,8.504 13.093,0 L -8.504,0 0,0 z"
             style="fill:none;stroke:#ff0000;stroke-width:2.4000001;stroke-linecap:butt;stroke-linejoin:miter;stroke-miterlimit:10;stroke-opacity:1;stroke-dasharray:none"
             id="path36"
             inkscape:connector-curvature="0" /></g><g
           id="g38"
           transform="translate(1089.9209,516.3062)"
           style="stroke:#ff0000;stroke-width:2.4000001"><path
             d="m 0,0 0,-29.292 -8.504,0 0,-29.291 -13.093,0 0,8.504 -21.597,0 0,-8.504 -21.598,0 0,8.504 -21.597,0 0,-8.504 -21.597,0 0,8.504 -21.598,0 0,-8.504 -21.597,0 0,8.504 -21.597,0 0,-8.504 -21.597,0 0,8.504 -21.598,0 0,-8.504 -21.597,0 0,8.504 -21.597,0 0,-8.504 -21.598,0 0,8.504 -21.597,0 0,-8.504 -21.597,0 0,8.504 -21.598,0 0,-8.504 -21.597,0 0,8.504 -21.597,0 0,-8.504 -21.598,0 0,8.504 -21.597,0 0,-8.504 -21.597,0 0,29.291 8.504,0 0,29.292 -8.504,0 0,29.291 21.597,0 0,-8.504 21.597,0 0,8.504 21.598,0 0,-8.504 21.597,0 0,8.504 21.597,0 0,-8.504 21.598,0 0,8.504 21.597,0 0,-8.504 21.597,0 0,8.504 21.598,0 0,-8.504 21.597,0 0,8.504 21.597,0 0,-8.504 21.598,0 0,8.504 21.597,0 0,-8.504 21.597,0 0,8.504 21.597,0 0,-8.504 21.598,0 0,8.504 21.597,0 0,-8.504 21.597,0 0,8.504 21.598,0 0,-8.504 21.597,0 0,8.504 13.093,0 L -8.504,0 0,0 z"
             style="fill:none;stroke:#ff0000;stroke-width:2.4000001;stroke-linecap:butt;stroke-linejoin:miter;stroke-miterlimit:10;stroke-opacity:1;stroke-dasharray:none"
             id="path40"
             inkscape:connector-curvature="0" /></g><path
           d="m 1182.166,407.549 -29.293,0 0,8.505 29.293,0 0,-8.505 z m 0,-35.59 -8.506,0 0,22.047 8.506,0 0,-22.047 z m 0,-44.095 -8.506,0 0,22.047 8.506,0 0,-22.047 z m 0,-44.094 -8.506,0 0,22.048 8.506,0 0,-22.048 z m 0,144.494 -41.733,41.733 12.026,12.026 29.707,-29.708 0,62.951 -87.875,0 0,-99.212 29.291,0 0,-8.505 -29.291,0 0,-13.543 8.504,0 0,-22.047 -8.504,0 0,-22.048 8.504,0 0,-22.047 -8.504,0 0,-22.047 8.504,0 0,-22.047 -8.504,0 0,-22.047 8.504,0 0,-22.048 -8.504,0 0,-22.047 29.291,0 0,8.504 29.291,0 0,-8.504 29.293,0 0,22.047 -8.506,0 0,22.048 8.506,0 0,7.059 159.481,0 -159.481,159.482 z"
           style="fill:none;stroke:#ff0000;stroke-width:2.4000001;stroke-linecap:butt;stroke-linejoin:miter;stroke-miterlimit:10;stroke-opacity:1;stroke-dasharray:none"
           id="path42"
           inkscape:connector-curvature="0" /><path
           d="m 591.63,407.55 -29.291,0 0,8.504 29.291,0 0,-8.504 z m -50.078,-35.591 -8.506,0 0,22.048 8.506,0 0,-22.048 z m 0,-44.094 -8.506,0 0,22.047 8.506,0 0,-22.047 z m 0,-44.094 -8.506,0 0,22.047 8.506,0 0,-22.047 z m -8.506,231.495 0,-63.45 30.226,30.226 12.026,-12.026 -42.252,-42.253 0,-0.07 -159.481,-159.481 159.481,0 0,-6.489 8.506,0 0,-22.047 -8.506,0 0,-13.543 29.293,0 0,-8.504 29.291,0 0,8.504 29.291,0 0,13.543 -8.504,0 0,22.047 8.504,0 0,22.048 -8.504,0 0,22.046 8.504,0 0,22.048 -8.504,0 0,22.047 8.504,0 0,22.047 -8.504,0 0,22.048 8.504,0 0,22.047 0,99.212 -87.875,0 z"
           style="fill:none;stroke:#ff0000;stroke-width:2.4000001;stroke-linecap:butt;stroke-linejoin:miter;stroke-miterlimit:10;stroke-opacity:1;stroke-dasharray:none"
           id="path44"
           inkscape:connector-curvature="0" /><g
           id="g46"
           transform="translate(895.5459,756.2344)"
           style="stroke:#ff0000;stroke-width:2.4000001"><path
             d="m 0,0 0,-8.504 21.597,0 0,8.504 21.597,0 0,-8.504 21.597,0 0,8.504 21.598,0 0,-8.504 21.597,0 0,8.504 21.597,0 0,-8.504 21.598,0 0,8.504 21.597,0 0,-8.504 13.093,0 0,-13.543 8.504,0 0,-22.047 -8.504,0 0,-22.048 8.504,0 0,-22.046 -8.504,0 0,-22.047 8.504,0 0,-22.048 -8.504,0 0,-22.047 8.504,0 0,-22.047 -8.504,0 0,-13.544 -13.093,0 0,-8.504 -21.597,0 0,8.504 -21.598,0 0,-8.504 -21.597,0 0,8.504 -21.597,0 0,-8.504 -21.598,0 0,8.504 -21.597,0 0,-8.504 -21.597,0 0,8.504 -21.597,0 0,-8.504 -21.598,0 0,8.504 -21.597,0 0,-8.504 -21.598,0 0,8.504 -21.597,0 0,-8.504 -21.597,0 0,8.504 -21.597,0 0,-8.504 -21.598,0 0,8.504 -21.597,0 0,-8.504 -21.597,0 0,8.504 -21.598,0 0,-8.504 -21.597,0 0,8.504 -13.093,0 0,13.544 -8.504,0 0,22.047 8.504,0 0,22.047 -8.504,0 0,22.048 8.504,0 0,22.047 -8.504,0 0,22.046 8.504,0 0,22.048 -8.504,0 0,22.047 8.504,0 0,13.543 13.093,0 0,8.504 21.597,0 0,-8.504 21.598,0 0,8.504 21.597,0 0,-8.504 21.597,0 0,8.504 L 0,0 z"
             style="fill:none;stroke:#ff0000;stroke-width:2.4000001;stroke-linecap:butt;stroke-linejoin:miter;stroke-miterlimit:10;stroke-opacity:1;stroke-dasharray:none"
             id="path48"
             inkscape:connector-curvature="0" /></g></g></g><g
       transform="matrix(0.99997379,-0.00724059,-0.00724059,-0.99997379,0,0)"
       style="font-size:19.20000076px;font-style:normal;font-variant:normal;font-weight:normal;font-stretch:normal;text-align:start;line-height:125%;letter-spacing:0px;word-spacing:0px;text-anchor:start;fill:#0000ff;fill-opacity:1;stroke:none;font-family:Latin Modern Sans;-inkscape-font-specification:Latin Modern Sans"
       id="text3058"><path
         d="m 656.44384,-398.93306 c 0,-3.7248 -2.592,-6.7776 -5.8944,-6.7776 l -5.0304,0 0,13.3248 5.0496,0 c 3.264,0 5.8752,-2.91841 5.8752,-6.5472 m -1.6512,0 c 0,3.26399 -1.9968,5.472 -4.6848,5.472 l -2.9376,0 0,-11.1744 2.9376,0 c 2.688,0 4.6848,2.3232 4.6848,5.7024"
         style=""
         id="path3175" /><path
         d="m 666.55564,-396.60986 c 0,-2.5728 -1.92,-4.6272 -4.2048,-4.6272 -2.36159,0 -4.224,2.112 -4.224,4.6272 0,2.53439 1.95841,4.4352 4.2048,4.4352 2.304,0 4.224,-1.93921 4.224,-4.4352 m -1.4976,-0.192 c 0,2.26559 -1.3056,3.3984 -2.7264,3.3984 -1.3248,0 -2.7072,-1.07521 -2.7072,-3.3984 0,-2.3232 1.4592,-3.264 2.7072,-3.264 1.344,0 2.7264,0.9984 2.7264,3.264"
         style=""
         id="path3177" /><path
         d="m 681.91534,-392.38586 0,-5.7216 c 0,-1.2672 -0.288,-3.0144 -2.6304,-3.0144 -1.728,0 -2.6688,1.3056 -2.784,1.4592 l 0,-1.3632 -1.3824,0 0,8.64 1.4976,0 0,-4.704 c 0,-1.2672 0.48,-2.8608 1.9392,-2.8608 1.8432,0 1.8624,1.3632 1.8624,1.9776 l 0,5.5872 1.4976,0"
         style=""
         id="path3179" /><path
         d="m 692.50564,-396.60986 c 0,-2.5728 -1.92,-4.6272 -4.2048,-4.6272 -2.36159,0 -4.224,2.112 -4.224,4.6272 0,2.53439 1.95841,4.4352 4.2048,4.4352 2.304,0 4.224,-1.93921 4.224,-4.4352 m -1.4976,-0.192 c 0,2.26559 -1.3056,3.3984 -2.7264,3.3984 -1.3248,0 -2.7072,-1.07521 -2.7072,-3.3984 0,-2.3232 1.4592,-3.264 2.7072,-3.264 1.344,0 2.7264,0.9984 2.7264,3.264"
         style=""
         id="path3181" /><path
         d="m 699.47525,-392.90426 -0.3072,-1.1328 c -0.4992,0.4032 -1.11361,0.6336 -1.728,0.6336 -0.7104,0 -0.9792,-0.57601 -0.9792,-1.5936 l 0,-4.8 2.7072,0 0,-1.1136 -2.7072,0 0,-2.4384 -1.3248,0 0,2.4384 -1.6704,0 0,1.1136 1.6128,0 0,5.1264 c 0,1.15199 0.2688,2.496 1.5936,2.496 1.34399,0 2.3232,-0.48 2.8032,-0.7296"
         style=""
         id="path3183" /><path
         d="m 715.76284,-399.91226 -0.2112,-1.2096 c -1.34399,0 -2.4576,0.3648 -3.0336,0.6144 -0.4032,-0.3264 -1.056,-0.6144 -1.824,-0.6144 -1.65119,0 -3.0528,1.3824 -3.0528,3.1296 0,0.71039 0.2496,1.4016 0.6336,1.9008 -0.5568,0.78719 -0.5568,1.536 -0.5568,1.632 0,0.4992 0.1728,1.056 0.4992,1.4592 -0.9984,0.5952 -1.2288,1.4784 -1.2288,1.9776 0,1.43999 1.90081,2.592 4.2432,2.592 2.3616,0 4.2624,-1.13281 4.2624,-2.6112 0,-2.6688 -3.2064,-2.6688 -3.9552,-2.6688 l -1.6896,0 c -0.2496,0 -1.1136,-10e-6 -1.1136,-1.0176 0,-0.2112 0.0768,-0.5184 0.2112,-0.6912 0.4032,0.288 1.0368,0.5568 1.7472,0.5568 1.728,0 3.072,-1.42081 3.072,-3.1296 0,-0.9216 -0.4224,-1.632 -0.6336,-1.92 l 0.0768,0.0192 c 0.4224,0 0.96,-0.0768 1.4208,-0.0768 0.3456,0 1.1328,0.0576 1.1328,0.0576 m -3.3408,1.92 c 0,1.49759 -0.9024,2.0352 -1.728,2.0352 -0.7104,0 -1.7088,-0.44161 -1.7088,-2.0352 0,-1.5936 0.9984,-2.0352 1.7088,-2.0352 0.8256,0 1.728,0.5376 1.728,2.0352 m 1.728,6.9888 c 0,0.84479 -1.3248,1.4784 -2.8992,1.4784 -1.55519,0 -2.9184,-0.59521 -2.9184,-1.4976 0,-0.0576 10e-6,-1.3056 1.4976,-1.3056 l 1.728,0 c 0.4224,0 2.592,0 2.592,1.3248"
         style=""
         id="path3185" /><path
         d="m 719.04604,-392.38586 0,-13.3248 -1.44,0 0,13.3248 1.44,0"
         style=""
         id="path3187" /><path
         d="m 728.97785,-392.38586 0,-8.5248 -1.4976,0 0,5.568 c 0,1.43999 -1.0752,2.112 -2.304,2.112 -1.3632,0 -1.4976,-0.49921 -1.4976,-1.3248 l 0,-6.3552 -1.4976,0 0,6.432 c 0,1.38239 0.4416,2.304 2.0352,2.304 1.0176,0 2.3808,-0.30721 3.3216,-1.1328 l 0,0.9216 1.44,0"
         style=""
         id="path3189" /><path
         d="m 738.51215,-396.59066 c 0,-0.6528 -0.0192,-2.09281 -0.768,-3.2448 -0.7872,-1.1904 -1.9584,-1.4016 -2.6496,-1.4016 -2.1312,0 -3.8592,2.0352 -3.8592,4.512 0,2.53439 1.8432,4.5504 4.1472,4.5504 1.2096,0 2.304,-0.4608 3.0528,-0.9984 l -0.1152,-1.248 c -1.2096,0.99839 -2.4768,1.0752 -2.9184,1.0752 -1.536,0 -2.7648,-1.36321 -2.8224,-3.2448 l 5.9328,0 m -1.0944,-1.056 -4.7424,0 c 0.3072,-1.4592 1.3248,-2.4192 2.4192,-2.4192 0.9984,0 2.0736,0.6528 2.3232,2.4192"
         style=""
         id="path3191" /><path
         d="m 751.86275,-392.90426 -0.3072,-1.1328 c -0.4992,0.4032 -1.1136,0.6336 -1.728,0.6336 -0.7104,0 -0.9792,-0.57601 -0.9792,-1.5936 l 0,-4.8 2.7072,0 0,-1.1136 -2.7072,0 0,-2.4384 -1.3248,0 0,2.4384 -1.6704,0 0,1.1136 1.6128,0 0,5.1264 c 0,1.15199 0.2688,2.496 1.5936,2.496 1.344,0 2.3232,-0.48 2.8032,-0.7296"
         style=""
         id="path3193" /><path
         d="m 760.77785,-392.38586 0,-5.7216 c 0,-1.2672 -0.288,-3.0144 -2.6304,-3.0144 -1.1904,0 -2.112,0.5952 -2.7264,1.3824 l 0,-5.9712 -1.44,0 0,13.3248 1.4976,0 0,-4.704 c 0,-1.2672 0.48,-2.8608 1.9392,-2.8608 1.8432,0 1.8624,1.3632 1.8624,1.9776 l 0,5.5872 1.4976,0"
         style=""
         id="path3195" /><path
         d="m 765.35855,-392.38586 0,-8.5248 -1.44,0 0,8.5248 1.44,0 m 0.1536,-10.8672 0,-1.7088 -1.7088,0 0,1.7088 1.7088,0"
         style=""
         id="path3197" /><path
         d="m 773.85035,-394.84346 c 0,-1.056 -0.7104,-1.7088 -0.7488,-1.7664 -0.7488,-0.672 -1.2672,-0.7872 -2.2272,-0.96 -1.056,-0.2112 -1.9392,-0.40321 -1.9392,-1.344 0,-1.1904 1.3824,-1.1904 1.632,-1.1904 0.6144,0 1.632,0.0768 2.7264,0.7296 l 0.2304,-1.248 c -0.9984,-0.4608 -1.7856,-0.6144 -2.7648,-0.6144 -0.48,0 -3.1872,0 -3.1872,2.5152 0,0.94079 0.5568,1.5552 1.0368,1.92 0.5952,0.4224 1.0176,0.4992 2.0736,0.7104 0.6912,0.1344 1.8048,0.3648 1.8048,1.3824 0,1.32479 -1.5168,1.3248 -1.8048,1.3248 -1.5552,0 -2.6304,-0.7104 -2.976,-0.9408 l -0.2304,1.3056 c 0.6144,0.3072 1.6704,0.8448 3.2256,0.8448 0.3456,0 1.4016,0 2.2272,-0.6144 0.5952,-0.4608 0.9216,-1.22881 0.9216,-2.0544"
         style=""
         id="path3199" /><path
         d="m 787.07525,-392.90426 -0.3072,-1.1328 c -0.4992,0.4032 -1.1136,0.6336 -1.728,0.6336 -0.7104,0 -0.9792,-0.57601 -0.9792,-1.5936 l 0,-4.8 2.7072,0 0,-1.1136 -2.7072,0 0,-2.4384 -1.3248,0 0,2.4384 -1.6704,0 0,1.1136 1.6128,0 0,5.1264 c 0,1.15199 0.2688,2.496 1.5936,2.496 1.344,0 2.3232,-0.48 2.8032,-0.7296"
         style=""
         id="path3201" /><path
         d="m 796.64315,-396.60986 c 0,-2.5728 -1.92,-4.6272 -4.2048,-4.6272 -2.3616,0 -4.224,2.112 -4.224,4.6272 0,2.53439 1.9584,4.4352 4.2048,4.4352 2.304,0 4.224,-1.93921 4.224,-4.4352 m -1.4976,-0.192 c 0,2.26559 -1.3056,3.3984 -2.7264,3.3984 -1.3248,0 -2.7072,-1.07521 -2.7072,-3.3984 0,-2.3232 1.4592,-3.264 2.7072,-3.264 1.344,0 2.7264,0.9984 2.7264,3.264"
         style=""
         id="path3203" /><path
         d="m 806.45434,-396.66746 c 0,-2.304 -1.2096,-4.4544 -3.0528,-4.4544 -1.152,0 -2.2656,0.4032 -3.1488,1.152 l 0,-0.9408 -1.44,0 0,12.2496 1.4976,0 0,-4.608 c 0.5952,0.5568 1.44,1.0944 2.592,1.0944 1.8624,0 3.552,-1.88161 3.552,-4.4928 m -1.4976,0 c 0,1.97759 -1.3632,3.3216 -2.8032,3.3216 -0.7488,0 -1.2672,-0.384 -1.6512,-0.9024 -0.192,-0.288 -0.192,-0.3264 -0.192,-0.672 l 0,-3.8592 c 0.4608,-0.672 1.2096,-1.1136 2.0352,-1.1136 1.4592,0 2.6112,1.4592 2.6112,3.2256"
         style=""
         id="path3205" /><path
         d="m 822.80435,-396.66746 c 0,-2.304 -1.2096,-4.4544 -3.0528,-4.4544 -1.152,0 -2.2656,0.4032 -3.1488,1.152 l 0,-0.9408 -1.44,0 0,12.2496 1.4976,0 0,-4.608 c 0.5952,0.5568 1.44,1.0944 2.592,1.0944 1.8624,0 3.552,-1.88161 3.552,-4.4928 m -1.4976,0 c 0,1.97759 -1.3632,3.3216 -2.8032,3.3216 -0.7488,0 -1.2672,-0.384 -1.6512,-0.9024 -0.192,-0.288 -0.192,-0.3264 -0.192,-0.672 l 0,-3.8592 c 0.4608,-0.672 1.2096,-1.1136 2.0352,-1.1136 1.4592,0 2.6112,1.4592 2.6112,3.2256"
         style=""
         id="path3207" /><path
         d="m 826.52105,-392.38586 0,-8.5248 -1.44,0 0,8.5248 1.44,0 m 0.1536,-10.8672 0,-1.7088 -1.7088,0 0,1.7088 1.7088,0"
         style=""
         id="path3209" /><path
         d="m 836.04965,-396.59066 c 0,-0.6528 -0.0192,-2.09281 -0.768,-3.2448 -0.7872,-1.1904 -1.95841,-1.4016 -2.6496,-1.4016 -2.1312,0 -3.8592,2.0352 -3.8592,4.512 0,2.53439 1.8432,4.5504 4.1472,4.5504 1.20959,0 2.304,-0.4608 3.0528,-0.9984 l -0.1152,-1.248 c -1.2096,0.99839 -2.4768,1.0752 -2.9184,1.0752 -1.536,0 -2.7648,-1.36321 -2.8224,-3.2448 l 5.9328,0 m -1.0944,-1.056 -4.7424,0 c 0.3072,-1.4592 1.3248,-2.4192 2.4192,-2.4192 0.99839,0 2.0736,0.6528 2.3232,2.4192"
         style=""
         id="path3211" /><path
         d="m 844.58136,-393.15386 -0.1152,-1.2864 c -0.9792,0.76799 -2.016,1.0368 -2.9952,1.0368 -1.5936,0 -2.6688,-1.38241 -2.6688,-3.264 0,-1.4976 0.7104,-3.3408 2.7456,-3.3408 0.9984,0 1.6512,0.1536 2.7072,0.8448 l 0.2304,-1.248 c -1.1328,-0.6528 -1.7856,-0.8256 -2.9568,-0.8256 -2.6688,0 -4.224,2.3232 -4.224,4.5888 0,2.38079 1.7472,4.4736 4.1472,4.4736 1.0368,0 2.0928,-0.2688 3.1296,-0.9792"
         style=""
         id="path3213" /><path
         d="m 853.07465,-396.59066 c 0,-0.6528 -0.0192,-2.09281 -0.768,-3.2448 -0.78719,-1.1904 -1.9584,-1.4016 -2.6496,-1.4016 -2.13119,0 -3.8592,2.0352 -3.8592,4.512 0,2.53439 1.84321,4.5504 4.1472,4.5504 1.2096,0 2.30401,-0.4608 3.0528,-0.9984 l -0.1152,-1.248 c -1.20959,0.99839 -2.4768,1.0752 -2.9184,1.0752 -1.53599,0 -2.7648,-1.36321 -2.8224,-3.2448 l 5.9328,0 m -1.0944,-1.056 -4.7424,0 c 0.3072,-1.4592 1.32481,-2.4192 2.4192,-2.4192 0.9984,0 2.07361,0.6528 2.3232,2.4192"
         style=""
         id="path3215" /><path
         d="m 857.09435,-392.40506 0,-1.5744 -1.5936,0 0,1.5936 0.48,0 -0.48,2.4 0.7872,0 0.8064,-2.4192"
         style=""
         id="path3217" /><path
         d="m 872.28785,-394.84346 c 0,-1.056 -0.7104,-1.7088 -0.7488,-1.7664 -0.74879,-0.672 -1.2672,-0.7872 -2.2272,-0.96 -1.05599,-0.2112 -1.9392,-0.40321 -1.9392,-1.344 0,-1.1904 1.3824,-1.1904 1.632,-1.1904 0.6144,0 1.63201,0.0768 2.7264,0.7296 l 0.2304,-1.248 c -0.99839,-0.4608 -1.7856,-0.6144 -2.7648,-0.6144 -0.47999,0 -3.1872,0 -3.1872,2.5152 0,0.94079 0.55681,1.5552 1.0368,1.92 0.5952,0.4224 1.01761,0.4992 2.0736,0.7104 0.6912,0.1344 1.8048,0.3648 1.8048,1.3824 0,1.32479 -1.5168,1.3248 -1.8048,1.3248 -1.55519,0 -2.6304,-0.7104 -2.976,-0.9408 l -0.2304,1.3056 c 0.6144,0.3072 1.67041,0.8448 3.2256,0.8448 0.3456,0 1.40161,0 2.2272,-0.6144 0.5952,-0.4608 0.9216,-1.22881 0.9216,-2.0544"
         style=""
         id="path3219" /><path
         d="m 881.73066,-396.60986 c 0,-2.5728 -1.92,-4.6272 -4.2048,-4.6272 -2.3616,0 -4.224,2.112 -4.224,4.6272 0,2.53439 1.9584,4.4352 4.2048,4.4352 2.304,0 4.224,-1.93921 4.224,-4.4352 m -1.4976,-0.192 c 0,2.26559 -1.3056,3.3984 -2.7264,3.3984 -1.3248,0 -2.7072,-1.07521 -2.7072,-3.3984 0,-2.3232 1.4592,-3.264 2.7072,-3.264 1.344,0 2.7264,0.9984 2.7264,3.264"
         style=""
         id="path3221" /><path
         d="m 895.11276,-392.90426 -0.3072,-1.1328 c -0.4992,0.4032 -1.1136,0.6336 -1.728,0.6336 -0.7104,0 -0.9792,-0.57601 -0.9792,-1.5936 l 0,-4.8 2.7072,0 0,-1.1136 -2.7072,0 0,-2.4384 -1.3248,0 0,2.4384 -1.6704,0 0,1.1136 1.6128,0 0,5.1264 c 0,1.15199 0.2688,2.496 1.5936,2.496 1.344,0 2.3232,-0.48 2.8032,-0.7296"
         style=""
         id="path3223" /><path
         d="m 904.02786,-392.38586 0,-5.7216 c 0,-1.2672 -0.288,-3.0144 -2.6304,-3.0144 -1.1904,0 -2.112,0.5952 -2.7264,1.3824 l 0,-5.9712 -1.44,0 0,13.3248 1.4976,0 0,-4.704 c 0,-1.2672 0.48,-2.8608 1.9392,-2.8608 1.8432,0 1.8624,1.3632 1.8624,1.9776 l 0,5.5872 1.4976,0"
         style=""
         id="path3225" /><path
         d="m 913.46614,-392.38586 0,-5.5488 c 0,-1.9584 -1.4016,-3.3024 -3.168,-3.3024 -1.248,0 -2.112,0.3072 -3.0144,0.8256 l 0.1152,1.2672 c 0.9984,-0.7104 1.9584,-0.96 2.8992,-0.96 0.9024,0 1.6704,0.768 1.6704,2.1888 l 0,0.8256 c -2.87999,0.0384 -5.3184,0.8448 -5.3184,2.5344 0,0.82559 0.5184,2.3808 2.1888,2.3808 0.2688,0 2.0736,-0.0384 3.1872,-0.9024 l 0,0.6912 1.44,0 m -1.4976,-2.5344 c 0,0.3648 0,0.8448 -0.6528,1.2096 -0.5568,0.3456 -1.2864,0.3648 -1.4976,0.3648 -0.9216,0 -1.7856,-0.44161 -1.7856,-1.248 0,-1.344 3.1104,-1.4784 3.936,-1.5168 l 0,1.1904"
         style=""
         id="path3227" /><path
         d="m 921.21275,-392.90426 -0.3072,-1.1328 c -0.4992,0.4032 -1.1136,0.6336 -1.728,0.6336 -0.7104,0 -0.9792,-0.57601 -0.9792,-1.5936 l 0,-4.8 2.7072,0 0,-1.1136 -2.7072,0 0,-2.4384 -1.3248,0 0,2.4384 -1.6704,0 0,1.1136 1.6128,0 0,5.1264 c 0,1.15199 0.2688,2.496 1.5936,2.496 1.344,0 2.3232,-0.48 2.8032,-0.7296"
         style=""
         id="path3229" /><path
         d="m 931.18355,-392.38586 0,-8.5248 -1.44,0 0,8.5248 1.44,0 m 0.1536,-10.8672 0,-1.7088 -1.7088,0 0,1.7088 1.7088,0"
         style=""
         id="path3231" /><path
         d="m 939.13777,-392.90426 -0.3072,-1.1328 c -0.4992,0.4032 -1.1136,0.6336 -1.728,0.6336 -0.7104,0 -0.9792,-0.57601 -0.9792,-1.5936 l 0,-4.8 2.7072,0 0,-1.1136 -2.7072,0 0,-2.4384 -1.3248,0 0,2.4384 -1.6704,0 0,1.1136 1.6128,0 0,5.1264 c 0,1.15199 0.2688,2.496 1.5936,2.496 1.344,0 2.3232,-0.48 2.8032,-0.7296"
         style=""
         id="path3233" /><path
         d="m 954.08134,-393.15386 -0.1152,-1.2864 c -0.9792,0.76799 -2.016,1.0368 -2.9952,1.0368 -1.5936,0 -2.6688,-1.38241 -2.6688,-3.264 0,-1.4976 0.7104,-3.3408 2.7456,-3.3408 0.9984,0 1.6512,0.1536 2.7072,0.8448 l 0.2304,-1.248 c -1.1328,-0.6528 -1.7856,-0.8256 -2.9568,-0.8256 -2.66879,0 -4.224,2.3232 -4.224,4.5888 0,2.38079 1.7472,4.4736 4.1472,4.4736 1.0368,0 2.0928,-0.2688 3.1296,-0.9792"
         style=""
         id="path3235" /><path
         d="m 962.47865,-392.38586 0,-5.5488 c 0,-1.9584 -1.4016,-3.3024 -3.168,-3.3024 -1.24799,0 -2.112,0.3072 -3.0144,0.8256 l 0.1152,1.2672 c 0.9984,-0.7104 1.95841,-0.96 2.8992,-0.96 0.9024,0 1.6704,0.768 1.6704,2.1888 l 0,0.8256 c -2.87999,0.0384 -5.3184,0.8448 -5.3184,2.5344 0,0.82559 0.51841,2.3808 2.1888,2.3808 0.2688,0 2.07361,-0.0384 3.1872,-0.9024 l 0,0.6912 1.44,0 m -1.4976,-2.5344 c 0,0.3648 0,0.8448 -0.6528,1.2096 -0.55679,0.3456 -1.2864,0.3648 -1.4976,0.3648 -0.92159,0 -1.7856,-0.44161 -1.7856,-1.248 0,-1.344 3.11041,-1.4784 3.936,-1.5168 l 0,1.1904"
         style=""
         id="path3237" /><path
         d="m 972.20286,-392.38586 0,-5.7216 c 0,-1.2672 -0.288,-3.0144 -2.6304,-3.0144 -1.728,0 -2.6688,1.3056 -2.784,1.4592 l 0,-1.3632 -1.3824,0 0,8.64 1.4976,0 0,-4.704 c 0,-1.2672 0.48,-2.8608 1.9392,-2.8608 1.8432,0 1.8624,1.3632 1.8624,1.9776 l 0,5.5872 1.4976,0"
         style=""
         id="path3239" /><path
         d="m 989.41687,-396.66746 c 0,-2.3808 -1.3056,-4.4544 -3.1104,-4.4544 -0.7488,0 -1.9392,0.192 -3.0912,1.1328 l 0,-5.7216 -1.44,0 0,13.3248 1.4976,0 0,-0.8832 c 0.4608,0.4224 1.2864,1.0944 2.5728,1.0944 1.92,0 3.5712,-1.92001 3.5712,-4.4928 m -1.4976,0 c 0,2.49599 -1.6128,3.3216 -2.784,3.3216 -0.7488,0 -1.3824,-0.34561 -1.8624,-1.2288 l 0,-4.2432 c 0.3072,-0.4608 0.9984,-1.1328 2.0544,-1.1328 1.1328,0 2.592,0.8256 2.592,3.2832"
         style=""
         id="path3241" /><path
         d="m 998.61216,-396.59066 c 0,-0.6528 -0.0192,-2.09281 -0.768,-3.2448 -0.7872,-1.1904 -1.9584,-1.4016 -2.6496,-1.4016 -2.1312,0 -3.8592,2.0352 -3.8592,4.512 0,2.53439 1.8432,4.5504 4.1472,4.5504 1.2096,0 2.304,-0.4608 3.0528,-0.9984 l -0.1152,-1.248 c -1.2096,0.99839 -2.4768,1.0752 -2.9184,1.0752 -1.536,0 -2.7648,-1.36321 -2.8224,-3.2448 l 5.9328,0 m -1.0944,-1.056 -4.7424,0 c 0.3072,-1.4592 1.3248,-2.4192 2.4192,-2.4192 0.9984,0 2.0736,0.6528 2.3232,2.4192"
         style=""
         id="path3243" /><path
         d="m 1011.8667,-399.83546 0,-1.2864 c -1.7087,0.0192 -2.7648,0.96 -3.36,1.8432 l 0,-1.7472 -1.344,0 0,8.64 1.44,0 0,-4.1088 c 0,-1.92 1.3825,-3.3024 3.264,-3.3408"
         style=""
         id="path3245" /><path
         d="m 1020.0996,-396.59066 c 0,-0.6528 -0.019,-2.09281 -0.768,-3.2448 -0.7872,-1.1904 -1.9584,-1.4016 -2.6496,-1.4016 -2.1311,0 -3.8592,2.0352 -3.8592,4.512 0,2.53439 1.8433,4.5504 4.1472,4.5504 1.2096,0 2.304,-0.4608 3.0528,-0.9984 l -0.1152,-1.248 c -1.2096,0.99839 -2.4768,1.0752 -2.9184,1.0752 -1.5359,0 -2.7648,-1.36321 -2.8224,-3.2448 l 5.9328,0 m -1.0944,-1.056 -4.7424,0 c 0.3072,-1.4592 1.3248,-2.4192 2.4192,-2.4192 0.9984,0 2.0736,0.6528 2.3232,2.4192"
         style=""
         id="path3247" /><path
         d="m 1034.353,-392.38586 0,-5.7216 c 0,-1.2864 -0.3072,-3.0144 -2.6304,-3.0144 -1.152,0 -2.1504,0.5376 -2.8608,1.5744 -0.4992,-1.4592 -1.8432,-1.5744 -2.4576,-1.5744 -1.3824,0 -2.2848,0.7872 -2.8032,1.4784 l 0,-1.3824 -1.3824,0 0,8.64 1.4976,0 0,-4.704 c 0,-1.3056 0.5184,-2.8608 1.9392,-2.8608 1.7856,0 1.8816,1.248 1.8816,1.9776 l 0,5.5872 1.4976,0 0,-4.704 c 0,-1.3056 0.5184,-2.8608 1.9392,-2.8608 1.7856,0 1.8816,1.248 1.8816,1.9776 l 0,5.5872 1.4976,0"
         style=""
         id="path3249" /><path
         d="m 1044.9307,-396.60986 c 0,-2.5728 -1.92,-4.6272 -4.2048,-4.6272 -2.3616,0 -4.224,2.112 -4.224,4.6272 0,2.53439 1.9584,4.4352 4.2048,4.4352 2.304,0 4.224,-1.93921 4.224,-4.4352 m -1.4976,-0.192 c 0,2.26559 -1.3056,3.3984 -2.7264,3.3984 -1.3248,0 -2.7072,-1.07521 -2.7072,-3.3984 0,-2.3232 1.4592,-3.264 2.7072,-3.264 1.344,0 2.7264,0.9984 2.7264,3.264"
         style=""
         id="path3251" /><path
         d="m 1054.089,-400.91066 -1.44,0 -1.5168,3.9936 c -0.4032,1.05599 -0.9984,2.6112 -1.152,3.5136 l -0.019,0 c -0.1152,-0.6912 -0.6144,-2.016 -0.8064,-2.5344 l -1.8624,-4.9728 -1.4976,0 3.3024,8.5248 1.6896,0 3.3024,-8.5248"
         style=""
         id="path3253" /><path
         d="m 1062.3247,-396.59066 c 0,-0.6528 -0.019,-2.09281 -0.768,-3.2448 -0.7872,-1.1904 -1.9584,-1.4016 -2.6496,-1.4016 -2.1312,0 -3.8592,2.0352 -3.8592,4.512 0,2.53439 1.8432,4.5504 4.1472,4.5504 1.2096,0 2.304,-0.4608 3.0528,-0.9984 l -0.1152,-1.248 c -1.2096,0.99839 -2.4768,1.0752 -2.9184,1.0752 -1.536,0 -2.7648,-1.36321 -2.8224,-3.2448 l 5.9328,0 m -1.0944,-1.056 -4.7424,0 c 0.3072,-1.4592 1.3248,-2.4192 2.4192,-2.4192 0.9984,0 2.0736,0.6528 2.3232,2.4192"
         style=""
         id="path3255" /><path
         d="m 1071.2212,-392.38586 0,-13.3248 -1.44,0 0,5.6448 c -1.0176,-0.8448 -2.0928,-1.056 -2.8032,-1.056 -1.9008,0 -3.3984,1.9968 -3.3984,4.4736 0,2.51519 1.4784,4.4736 3.3024,4.4736 0.6336,0 1.7664,-0.17281 2.8416,-1.2096 l 0,0.9984 1.4976,0 m -1.4976,-2.6688 c 0,0.2688 -0.019,0.6144 -0.6336,1.1712 -0.4416,0.384 -0.9216,0.5376 -1.4208,0.5376 -1.1904,0 -2.592,-0.90241 -2.592,-3.2832 0,-2.5344 1.6512,-3.3216 2.784,-3.3216 0.864,0 1.44,0.4416 1.8624,1.056 l 0,3.84"
         style=""
         id="path3257" /><path
         d="m 656.75074,-380.42426 0,-1.2864 c -0.2304,-0.0576 -0.8256,-0.2112 -1.536,-0.2112 -1.8048,0 -3.1872,1.3632 -3.1872,3.2832 l 0,1.728 -1.4208,0 0,1.1136 1.4208,0 0,7.4112 1.44,0 0,-7.4112 2.112,0 0,-1.1136 -2.1696,0 0,-2.2848 c 0,-1.4208 1.2864,-1.5552 1.7856,-1.5552 0.384,0 0.9024,0.0384 1.5552,0.3264"
         style=""
         id="path3259" /><path
         d="m 664.98064,-372.60986 c 0,-2.5728 -1.92,-4.6272 -4.2048,-4.6272 -2.36159,0 -4.224,2.112 -4.224,4.6272 0,2.53439 1.95841,4.4352 4.2048,4.4352 2.304,0 4.224,-1.93921 4.224,-4.4352 m -1.4976,-0.192 c 0,2.26559 -1.3056,3.3984 -2.7264,3.3984 -1.3248,0 -2.7072,-1.07521 -2.7072,-3.3984 0,-2.3232 1.4592,-3.264 2.7072,-3.264 1.344,0 2.7264,0.9984 2.7264,3.264"
         style=""
         id="path3261" /><path
         d="m 671.32924,-375.83546 0,-1.2864 c -1.70879,0.0192 -2.7648,0.96 -3.36,1.8432 l 0,-1.7472 -1.344,0 0,8.64 1.44,0 0,-4.1088 c 0,-1.92 1.38241,-3.3024 3.264,-3.3408"
         style=""
         id="path3263" /><path
         d="m 684.40024,-363.58586 c -0.92159,-0.9216 -3.36,-3.39841 -3.36,-9.6 0,-1.0752 0.0576,-3.32161 0.8448,-5.5872 0.7872,-2.2272 1.88161,-3.3792 2.5152,-4.0128 l -1.1712,0 c -0.61439,0.576 -1.9008,1.7472 -2.784,4.1088 -0.76799,2.05439 -0.9024,4.0896 -0.9024,5.4912 0,6.20159 2.76481,8.7552 3.6864,9.6 l 1.1712,0"
         style=""
         id="path3265" /><path
         d="m 693.82115,-368.38586 0,-13.3248 -1.44,0 0,5.6448 c -1.0176,-0.8448 -2.0928,-1.056 -2.8032,-1.056 -1.9008,0 -3.3984,1.9968 -3.3984,4.4736 0,2.51519 1.4784,4.4736 3.3024,4.4736 0.6336,0 1.7664,-0.1728 2.8416,-1.2096 l 0,0.9984 1.4976,0 m -1.4976,-2.6688 c 0,0.2688 -0.0192,0.6144 -0.6336,1.1712 -0.4416,0.384 -0.9216,0.5376 -1.4208,0.5376 -1.1904,0 -2.592,-0.90241 -2.592,-3.2832 0,-2.5344 1.6512,-3.3216 2.784,-3.3216 0.864,0 1.44,0.4416 1.8624,1.056 l 0,3.84"
         style=""
         id="path3267" /><path
         d="m 698.42105,-368.38586 0,-8.5248 -1.44,0 0,8.5248 1.44,0 m 0.1536,-10.8672 0,-1.7088 -1.7088,0 0,1.7088 1.7088,0"
         style=""
         id="path3269" /><path
         d="m 706.91285,-370.84346 c 0,-1.056 -0.7104,-1.7088 -0.7488,-1.7664 -0.7488,-0.672 -1.2672,-0.7872 -2.2272,-0.96 -1.056,-0.2112 -1.9392,-0.4032 -1.9392,-1.344 0,-1.1904 1.3824,-1.1904 1.632,-1.1904 0.6144,0 1.632,0.0768 2.7264,0.7296 l 0.2304,-1.248 c -0.9984,-0.4608 -1.7856,-0.6144 -2.7648,-0.6144 -0.48,0 -3.1872,0 -3.1872,2.5152 0,0.9408 0.5568,1.5552 1.0368,1.92 0.5952,0.4224 1.0176,0.4992 2.0736,0.7104 0.6912,0.1344 1.8048,0.3648 1.8048,1.3824 0,1.3248 -1.5168,1.3248 -1.8048,1.3248 -1.5552,0 -2.6304,-0.7104 -2.976,-0.9408 l -0.2304,1.3056 c 0.6144,0.3072 1.6704,0.8448 3.2256,0.8448 0.3456,0 1.4016,0 2.2272,-0.6144 0.5952,-0.4608 0.9216,-1.2288 0.9216,-2.0544"
         style=""
         id="path3271" /><path
         d="m 713.28365,-373.18586 c 0,-6.2016 -2.76481,-8.7552 -3.6864,-9.6 l -1.1712,0 c 0.92159,0.9216 3.36,3.3984 3.36,9.6 0,1.0752 -0.0576,3.3216 -0.8448,5.5872 -0.7872,2.22719 -1.88161,3.3792 -2.5152,4.0128 l 1.1712,0 c 0.61439,-0.576 1.9008,-1.74721 2.784,-4.1088 0.76799,-2.0544 0.9024,-4.0896 0.9024,-5.4912"
         style=""
         id="path3273" /><path
         d="m 722.66615,-368.38586 0,-5.5488 c 0,-1.9584 -1.4016,-3.3024 -3.168,-3.3024 -1.248,0 -2.112,0.3072 -3.0144,0.8256 l 0.1152,1.2672 c 0.9984,-0.7104 1.9584,-0.96 2.8992,-0.96 0.9024,0 1.6704,0.768 1.6704,2.1888 l 0,0.8256 c -2.88,0.0384 -5.3184,0.8448 -5.3184,2.5344 0,0.8256 0.5184,2.3808 2.1888,2.3808 0.2688,0 2.0736,-0.0384 3.1872,-0.9024 l 0,0.6912 1.44,0 m -1.4976,-2.5344 c 0,0.3648 0,0.8448 -0.6528,1.2096 -0.5568,0.3456 -1.2864,0.3648 -1.4976,0.3648 -0.9216,0 -1.7856,-0.4416 -1.7856,-1.248 0,-1.344 3.1104,-1.4784 3.936,-1.5168 l 0,1.1904"
         style=""
         id="path3275" /><path
         d="m 730.95035,-370.84346 c 0,-1.056 -0.7104,-1.7088 -0.7488,-1.7664 -0.7488,-0.672 -1.26721,-0.7872 -2.2272,-0.96 -1.056,-0.2112 -1.9392,-0.4032 -1.9392,-1.344 0,-1.1904 1.3824,-1.1904 1.632,-1.1904 0.61439,0 1.632,0.0768 2.7264,0.7296 l 0.2304,-1.248 c -0.9984,-0.4608 -1.78561,-0.6144 -2.7648,-0.6144 -0.48,0 -3.1872,0 -3.1872,2.5152 0,0.9408 0.5568,1.5552 1.0368,1.92 0.59519,0.4224 1.0176,0.4992 2.0736,0.7104 0.69119,0.1344 1.8048,0.3648 1.8048,1.3824 0,1.3248 -1.5168,1.3248 -1.8048,1.3248 -1.5552,0 -2.6304,-0.7104 -2.976,-0.9408 l -0.2304,1.3056 c 0.61439,0.3072 1.6704,0.8448 3.2256,0.8448 0.3456,0 1.4016,0 2.2272,-0.6144 0.5952,-0.4608 0.9216,-1.2288 0.9216,-2.0544"
         style=""
         id="path3277" /><path
         d="m 738.30034,-370.84346 c 0,-1.056 -0.7104,-1.7088 -0.7488,-1.7664 -0.7488,-0.672 -1.2672,-0.7872 -2.2272,-0.96 -1.056,-0.2112 -1.9392,-0.4032 -1.9392,-1.344 0,-1.1904 1.3824,-1.1904 1.632,-1.1904 0.6144,0 1.63201,0.0768 2.7264,0.7296 l 0.2304,-1.248 c -0.99839,-0.4608 -1.7856,-0.6144 -2.7648,-0.6144 -0.48,0 -3.1872,0 -3.1872,2.5152 0,0.9408 0.5568,1.5552 1.0368,1.92 0.5952,0.4224 1.0176,0.4992 2.0736,0.7104 0.6912,0.1344 1.8048,0.3648 1.8048,1.3824 0,1.3248 -1.5168,1.3248 -1.8048,1.3248 -1.55519,0 -2.6304,-0.7104 -2.976,-0.9408 l -0.2304,1.3056 c 0.6144,0.3072 1.67041,0.8448 3.2256,0.8448 0.3456,0 1.4016,0 2.2272,-0.6144 0.5952,-0.4608 0.9216,-1.2288 0.9216,-2.0544"
         style=""
         id="path3279" /><path
         d="m 746.68715,-372.59066 c 0,-0.6528 -0.0192,-2.0928 -0.768,-3.2448 -0.7872,-1.1904 -1.9584,-1.4016 -2.6496,-1.4016 -2.1312,0 -3.8592,2.0352 -3.8592,4.512 0,2.53439 1.8432,4.5504 4.1472,4.5504 1.2096,0 2.304,-0.4608 3.0528,-0.9984 l -0.1152,-1.248 c -1.2096,0.9984 -2.4768,1.0752 -2.9184,1.0752 -1.536,0 -2.7648,-1.36321 -2.8224,-3.2448 l 5.9328,0 m -1.0944,-1.056 -4.7424,0 c 0.3072,-1.4592 1.3248,-2.4192 2.4192,-2.4192 0.9984,0 2.0736,0.6528 2.3232,2.4192"
         style=""
         id="path3281" /><path
         d="m 760.94045,-368.38586 0,-5.7216 c 0,-1.2864 -0.3072,-3.0144 -2.6304,-3.0144 -1.152,0 -2.1504,0.5376 -2.8608,1.5744 -0.4992,-1.4592 -1.8432,-1.5744 -2.4576,-1.5744 -1.3824,0 -2.2848,0.7872 -2.8032,1.4784 l 0,-1.3824 -1.3824,0 0,8.64 1.4976,0 0,-4.704 c 0,-1.3056 0.5184,-2.8608 1.9392,-2.8608 1.7856,0 1.8816,1.248 1.8816,1.9776 l 0,5.5872 1.4976,0 0,-4.704 c 0,-1.3056 0.5184,-2.8608 1.9392,-2.8608 1.7856,0 1.8816,1.248 1.8816,1.9776 l 0,5.5872 1.4976,0"
         style=""
         id="path3283" /><path
         d="m 771.72935,-372.66746 c 0,-2.3808 -1.3056,-4.4544 -3.1104,-4.4544 -0.7488,0 -1.9392,0.192 -3.0912,1.1328 l 0,-5.7216 -1.44,0 0,13.3248 1.4976,0 0,-0.8832 c 0.4608,0.4224 1.2864,1.0944 2.5728,1.0944 1.92,0 3.5712,-1.92001 3.5712,-4.4928 m -1.4976,0 c 0,2.49599 -1.6128,3.3216 -2.784,3.3216 -0.7488,0 -1.3824,-0.3456 -1.8624,-1.2288 l 0,-4.2432 c 0.3072,-0.4608 0.9984,-1.1328 2.0544,-1.1328 1.1328,0 2.592,0.8256 2.592,3.2832"
         style=""
         id="path3285" /><path
         d="m 775.44605,-368.38586 0,-13.3248 -1.44,0 0,13.3248 1.44,0"
         style=""
         id="path3287" /><path
         d="m 785.58905,-376.91066 -1.44,0 c -2.496,6.10559 -2.5344,6.9888 -2.5536,7.4304 l -0.0192,0 c -0.1152,-1.2864 -1.6512,-4.8576 -1.728,-5.0304 l -1.0368,-2.4 -1.5168,0 3.7248,8.5248 -0.6912,1.728 c -0.4992,1.1136 -0.8256,1.1136 -1.0944,1.1136 -0.3072,0 -0.9216,-0.0768 -1.4976,-0.3072 l 0.1152,1.248 c 0.4224,0.096 0.96,0.1536 1.3824,0.1536 0.672,0 1.3824,-0.23041 2.1696,-2.1888 l 4.1856,-10.272"
         style=""
         id="path3289" /><path
         d="m 787.75684,-368.38586 0,-1.5936 -1.5936,0 0,1.5936 1.5936,0"
         style=""
         id="path3291" /><path
         d="m 809.07515,-375.00986 c 0,-4.032 -2.78401,-7.1232 -5.9712,-7.1232 -3.264,0 -5.9904,3.1296 -5.9904,7.1232 0,4.07039 2.8416,7.0464 5.9712,7.0464 3.20639,0 5.9904,-3.01441 5.9904,-7.0464 m -1.7088,-0.288 c 0,3.74399 -2.07361,6.0864 -4.2624,6.0864 -2.2656,0 -4.2816,-2.40001 -4.2816,-6.0864 0,-3.5136 2.112,-5.6064 4.2624,-5.6064 2.22719,0 4.2816,2.1696 4.2816,5.6064"
         style=""
         id="path3293" /><path
         d="m 818.52784,-368.38586 0,-5.7216 c 0,-1.2672 -0.288,-3.0144 -2.6304,-3.0144 -1.728,0 -2.6688,1.3056 -2.784,1.4592 l 0,-1.3632 -1.3824,0 0,8.64 1.4976,0 0,-4.704 c 0,-1.2672 0.48,-2.8608 1.9392,-2.8608 1.8432,0 1.8624,1.3632 1.8624,1.9776 l 0,5.5872 1.4976,0"
         style=""
         id="path3295" /><path
         d="m 823.10854,-368.38586 0,-13.3248 -1.44,0 0,13.3248 1.44,0"
         style=""
         id="path3297" /><path
         d="m 833.25155,-376.91066 -1.44,0 c -2.49599,6.10559 -2.5344,6.9888 -2.5536,7.4304 l -0.0192,0 c -0.1152,-1.2864 -1.6512,-4.8576 -1.728,-5.0304 l -1.0368,-2.4 -1.5168,0 3.7248,8.5248 -0.6912,1.728 c -0.49919,1.1136 -0.8256,1.1136 -1.0944,1.1136 -0.3072,0 -0.9216,-0.0768 -1.4976,-0.3072 l 0.1152,1.248 c 0.4224,0.096 0.96,0.1536 1.3824,0.1536 0.672,0 1.38241,-0.23041 2.1696,-2.1888 l 4.1856,-10.272"
         style=""
         id="path3299" /><path
         d="m 849.26285,-375.91226 -0.2112,-1.2096 c -1.344,0 -2.4576,0.3648 -3.0336,0.6144 -0.4032,-0.3264 -1.056,-0.6144 -1.824,-0.6144 -1.6512,0 -3.0528,1.3824 -3.0528,3.1296 0,0.7104 0.2496,1.4016 0.6336,1.9008 -0.5568,0.7872 -0.5568,1.536 -0.5568,1.632 0,0.4992 0.1728,1.056 0.4992,1.4592 -0.9984,0.5952 -1.2288,1.4784 -1.2288,1.9776 0,1.44 1.9008,2.592 4.2432,2.592 2.3616,0 4.2624,-1.1328 4.2624,-2.6112 0,-2.6688 -3.2064,-2.6688 -3.9552,-2.6688 l -1.6896,0 c -0.2496,0 -1.1136,0 -1.1136,-1.0176 0,-0.2112 0.0768,-0.5184 0.2112,-0.6912 0.4032,0.288 1.0368,0.5568 1.7472,0.5568 1.728,0 3.072,-1.42081 3.072,-3.1296 0,-0.9216 -0.4224,-1.632 -0.6336,-1.92 l 0.0768,0.0192 c 0.4224,0 0.96,-0.0768 1.4208,-0.0768 0.3456,0 1.1328,0.0576 1.1328,0.0576 m -3.3408,1.92 c 0,1.4976 -0.9024,2.0352 -1.728,2.0352 -0.7104,0 -1.7088,-0.44161 -1.7088,-2.0352 0,-1.5936 0.9984,-2.0352 1.7088,-2.0352 0.8256,0 1.728,0.5376 1.728,2.0352 m 1.728,6.9888 c 0,0.8448 -1.3248,1.4784 -2.8992,1.4784 -1.5552,0 -2.9184,-0.5952 -2.9184,-1.4976 0,-0.0576 0,-1.3056 1.4976,-1.3056 l 1.728,0 c 0.4224,0 2.592,0 2.592,1.3248"
         style=""
         id="path3301" /><path
         d="m 852.54606,-368.38586 0,-13.3248 -1.44,0 0,13.3248 1.44,0"
         style=""
         id="path3303" /><path
         d="m 862.47785,-368.38586 0,-8.5248 -1.4976,0 0,5.568 c 0,1.44 -1.0752,2.112 -2.304,2.112 -1.36319,0 -1.4976,-0.4992 -1.4976,-1.3248 l 0,-6.3552 -1.4976,0 0,6.432 c 0,1.3824 0.44161,2.304 2.0352,2.304 1.0176,0 2.38081,-0.3072 3.3216,-1.1328 l 0,0.9216 1.44,0"
         style=""
         id="path3305" /><path
         d="m 872.01215,-372.59066 c 0,-0.6528 -0.0192,-2.0928 -0.768,-3.2448 -0.78719,-1.1904 -1.9584,-1.4016 -2.6496,-1.4016 -2.13119,0 -3.8592,2.0352 -3.8592,4.512 0,2.53439 1.84321,4.5504 4.1472,4.5504 1.2096,0 2.30401,-0.4608 3.0528,-0.9984 l -0.1152,-1.248 c -1.20959,0.9984 -2.4768,1.0752 -2.9184,1.0752 -1.53599,0 -2.7648,-1.36321 -2.8224,-3.2448 l 5.9328,0 m -1.0944,-1.056 -4.7424,0 c 0.3072,-1.4592 1.32481,-2.4192 2.4192,-2.4192 0.9984,0 2.07361,0.6528 2.3232,2.4192"
         style=""
         id="path3307" /><path
         d="m 886.84116,-368.38586 0,-5.5488 c 0,-1.9584 -1.4016,-3.3024 -3.168,-3.3024 -1.248,0 -2.112,0.3072 -3.0144,0.8256 l 0.1152,1.2672 c 0.9984,-0.7104 1.9584,-0.96 2.8992,-0.96 0.9024,0 1.6704,0.768 1.6704,2.1888 l 0,0.8256 c -2.88,0.0384 -5.3184,0.8448 -5.3184,2.5344 0,0.8256 0.5184,2.3808 2.1888,2.3808 0.2688,0 2.0736,-0.0384 3.1872,-0.9024 l 0,0.6912 1.44,0 m -1.4976,-2.5344 c 0,0.3648 0,0.8448 -0.6528,1.2096 -0.5568,0.3456 -1.2864,0.3648 -1.4976,0.3648 -0.9216,0 -1.7856,-0.4416 -1.7856,-1.248 0,-1.344 3.1104,-1.4784 3.936,-1.5168 l 0,1.1904"
         style=""
         id="path3309" /><path
         d="m 891.20855,-368.38586 0,-13.3248 -1.44,0 0,13.3248 1.44,0"
         style=""
         id="path3311" /><path
         d="m 895.78356,-368.38586 0,-13.3248 -1.44,0 0,13.3248 1.44,0"
         style=""
         id="path3313" /><path
         d="m 912.78065,-372.60986 c 0,-2.5728 -1.92,-4.6272 -4.2048,-4.6272 -2.3616,0 -4.224,2.112 -4.224,4.6272 0,2.53439 1.9584,4.4352 4.2048,4.4352 2.304,0 4.224,-1.93921 4.224,-4.4352 m -1.4976,-0.192 c 0,2.26559 -1.3056,3.3984 -2.7264,3.3984 -1.3248,0 -2.7072,-1.07521 -2.7072,-3.3984 0,-2.3232 1.4592,-3.264 2.7072,-3.264 1.344,0 2.7264,0.9984 2.7264,3.264"
         style=""
         id="path3315" /><path
         d="m 919.75025,-368.90426 -0.3072,-1.1328 c -0.49919,0.4032 -1.1136,0.6336 -1.728,0.6336 -0.71039,0 -0.9792,-0.576 -0.9792,-1.5936 l 0,-4.8 2.7072,0 0,-1.1136 -2.7072,0 0,-2.4384 -1.3248,0 0,2.4384 -1.6704,0 0,1.1136 1.6128,0 0,5.1264 c 0,1.152 0.26881,2.496 1.5936,2.496 1.344,0 2.32321,-0.48 2.8032,-0.7296"
         style=""
         id="path3317" /><path
         d="m 928.66535,-368.38586 0,-5.7216 c 0,-1.2672 -0.288,-3.0144 -2.6304,-3.0144 -1.19039,0 -2.112,0.5952 -2.7264,1.3824 l 0,-5.9712 -1.44,0 0,13.3248 1.4976,0 0,-4.704 c 0,-1.2672 0.48001,-2.8608 1.9392,-2.8608 1.8432,0 1.8624,1.3632 1.8624,1.9776 l 0,5.5872 1.4976,0"
         style=""
         id="path3319" /><path
         d="m 938.19965,-372.59066 c 0,-0.6528 -0.0192,-2.0928 -0.768,-3.2448 -0.78719,-1.1904 -1.9584,-1.4016 -2.6496,-1.4016 -2.13119,0 -3.8592,2.0352 -3.8592,4.512 0,2.53439 1.84321,4.5504 4.1472,4.5504 1.2096,0 2.30401,-0.4608 3.0528,-0.9984 l -0.1152,-1.248 c -1.20959,0.9984 -2.4768,1.0752 -2.9184,1.0752 -1.53599,0 -2.7648,-1.36321 -2.8224,-3.2448 l 5.9328,0 m -1.0944,-1.056 -4.7424,0 c 0.3072,-1.4592 1.32481,-2.4192 2.4192,-2.4192 0.9984,0 2.07361,0.6528 2.3232,2.4192"
         style=""
         id="path3321" /><path
         d="m 945.04177,-375.83546 0,-1.2864 c -1.7088,0.0192 -2.7648,0.96 -3.36,1.8432 l 0,-1.7472 -1.344,0 0,8.64 1.44,0 0,-4.1088 c 0,-1.92 1.3824,-3.3024 3.264,-3.3408"
         style=""
         id="path3323" /><path
         d="m 960.95434,-372.66746 c 0,-2.304 -1.2096,-4.4544 -3.0528,-4.4544 -1.152,0 -2.2656,0.4032 -3.1488,1.152 l 0,-0.9408 -1.44,0 0,12.2496 1.4976,0 0,-4.608 c 0.5952,0.5568 1.44,1.0944 2.592,1.0944 1.8624,0 3.552,-1.88161 3.552,-4.4928 m -1.4976,0 c 0,1.97759 -1.3632,3.3216 -2.8032,3.3216 -0.7488,0 -1.2672,-0.384 -1.6512,-0.9024 -0.192,-0.288 -0.192,-0.3264 -0.192,-0.672 l 0,-3.8592 c 0.4608,-0.672 1.2096,-1.1136 2.0352,-1.1136 1.4592,0 2.6112,1.4592 2.6112,3.2256"
         style=""
         id="path3325" /><path
         d="m 964.67104,-368.38586 0,-8.5248 -1.44,0 0,8.5248 1.44,0 m 0.1536,-10.8672 0,-1.7088 -1.7088,0 0,1.7088 1.7088,0"
         style=""
         id="path3327" /><path
         d="m 974.19965,-372.59066 c 0,-0.6528 -0.0192,-2.0928 -0.768,-3.2448 -0.78719,-1.1904 -1.9584,-1.4016 -2.6496,-1.4016 -2.13119,0 -3.8592,2.0352 -3.8592,4.512 0,2.53439 1.84321,4.5504 4.1472,4.5504 1.2096,0 2.30401,-0.4608 3.0528,-0.9984 l -0.1152,-1.248 c -1.20959,0.9984 -2.4768,1.0752 -2.9184,1.0752 -1.53599,0 -2.7648,-1.36321 -2.8224,-3.2448 l 5.9328,0 m -1.0944,-1.056 -4.7424,0 c 0.3072,-1.4592 1.32481,-2.4192 2.4192,-2.4192 0.9984,0 2.07361,0.6528 2.3232,2.4192"
         style=""
         id="path3329" /><path
         d="m 982.73137,-369.15386 -0.1152,-1.2864 c -0.9792,0.768 -2.016,1.0368 -2.9952,1.0368 -1.5936,0 -2.6688,-1.38241 -2.6688,-3.264 0,-1.4976 0.7104,-3.3408 2.7456,-3.3408 0.9984,0 1.6512,0.1536 2.7072,0.8448 l 0.2304,-1.248 c -1.1328,-0.6528 -1.7856,-0.8256 -2.9568,-0.8256 -2.6688,0 -4.224,2.3232 -4.224,4.5888 0,2.38079 1.7472,4.4736 4.1472,4.4736 1.0368,0 2.0928,-0.2688 3.1296,-0.9792"
         style=""
         id="path3331" /><path
         d="m 991.22465,-372.59066 c 0,-0.6528 -0.0192,-2.0928 -0.768,-3.2448 -0.7872,-1.1904 -1.9584,-1.4016 -2.6496,-1.4016 -2.1312,0 -3.8592,2.0352 -3.8592,4.512 0,2.53439 1.8432,4.5504 4.1472,4.5504 1.2096,0 2.304,-0.4608 3.0528,-0.9984 l -0.1152,-1.248 c -1.2096,0.9984 -2.4768,1.0752 -2.9184,1.0752 -1.536,0 -2.7648,-1.36321 -2.8224,-3.2448 l 5.9328,0 m -1.0944,-1.056 -4.7424,0 c 0.3072,-1.4592 1.3248,-2.4192 2.4192,-2.4192 0.9984,0 2.0736,0.6528 2.3232,2.4192"
         style=""
         id="path3333" /><path
         d="m 998.70036,-370.84346 c 0,-1.056 -0.7104,-1.7088 -0.7488,-1.7664 -0.7488,-0.672 -1.2672,-0.7872 -2.2272,-0.96 -1.056,-0.2112 -1.9392,-0.4032 -1.9392,-1.344 0,-1.1904 1.3824,-1.1904 1.632,-1.1904 0.6144,0 1.632,0.0768 2.7264,0.7296 l 0.2304,-1.248 c -0.9984,-0.4608 -1.7856,-0.6144 -2.7648,-0.6144 -0.48,0 -3.1872,0 -3.1872,2.5152 0,0.9408 0.5568,1.5552 1.0368,1.92 0.5952,0.4224 1.0176,0.4992 2.0736,0.7104 0.6912,0.1344 1.8048,0.3648 1.8048,1.3824 0,1.3248 -1.5168,1.3248 -1.8048,1.3248 -1.5552,0 -2.6304,-0.7104 -2.976,-0.9408 l -0.2304,1.3056 c 0.6144,0.3072 1.6704,0.8448 3.2256,0.8448 0.3456,0 1.4016,0 2.2272,-0.6144 0.5952,-0.4608 0.9216,-1.2288 0.9216,-2.0544"
         style=""
         id="path3335" /><path
         d="m 1002.5944,-368.38586 0,-1.5936 -1.5936,0 0,1.5936 1.5936,0"
         style=""
         id="path3337" /></g></g></svg>