<?xml version="1.0" encoding="UTF-8" standalone="no"?>
<!-- Created with Inkscape (http://www.inkscape.org/) -->

<svg
   xmlns:dc="http://purl.org/dc/elements/1.1/"
   xmlns:cc="http://creativecommons.org/ns#"
   xmlns:rdf="http://www.w3.org/1999/02/22-rdf-syntax-ns#"
   xmlns:svg="http://www.w3.org/2000/svg"
   xmlns="http://www.w3.org/2000/svg"
   xmlns:sodipodi="http://sodipodi.sourceforge.net/DTD/sodipodi-0.dtd"
   xmlns:inkscape="http://www.inkscape.org/namespaces/inkscape"
   id="svg2"
   version="1.1"
   inkscape:version="0.48.4 r9939"
   width="2157.874"
   height="1077.1653"
   xml:space="preserve"
   sodipodi:docname="ulticontroller_case_merged.svg"><metadata
     id="metadata8"><rdf:RDF><cc:Work
         rdf:about=""><dc:format>image/svg+xml</dc:format><dc:type
           rdf:resource="http://purl.org/dc/dcmitype/StillImage" /><dc:title /></cc:Work></rdf:RDF></metadata><defs
     id="defs6"><clipPath
       clipPathUnits="userSpaceOnUse"
       id="clipPath18"><path
         d="m 0,0 8242.75,0 0,7736 L 0,7736 0,0 z"
         id="path20"
         inkscape:connector-curvature="0" /></clipPath></defs><sodipodi:namedview
     pagecolor="#ffffff"
     bordercolor="#666666"
     borderopacity="1"
     objecttolerance="10"
     gridtolerance="10"
     guidetolerance="10"
     inkscape:pageopacity="0"
     inkscape:pageshadow="2"
     inkscape:window-width="1920"
     inkscape:window-height="1018"
     id="namedview4"
     showgrid="false"
     inkscape:zoom="4.0000001"
     inkscape:cx="324.0109"
     inkscape:cy="589.7497"
     inkscape:window-x="-7"
     inkscape:window-y="32"
     inkscape:window-maximized="1"
     inkscape:current-layer="g10"
     units="mm"
     inkscape:document-units="mm"
     inkscape:snap-bbox="true"
     inkscape:bbox-paths="true"
     inkscape:bbox-nodes="true"
     inkscape:snap-bbox-edge-midpoints="true"
     inkscape:snap-bbox-midpoints="true"
     inkscape:snap-nodes="true"
     inkscape:object-paths="true"
     inkscape:snap-intersection-paths="true"
     inkscape:object-nodes="true"
     inkscape:snap-smooth-nodes="true"
     inkscape:snap-midpoints="true"
     inkscape:snap-object-midpoints="true"
     inkscape:snap-center="true" /><g
     id="g10"
     inkscape:groupmode="layer"
     inkscape:label="ink_ext_XXXXXX"
     transform="matrix(1.25,0,0,-1.25,0,1077.1654)"><g
       id="g4564"
       transform="translate(-549.05785,-141.51269)"><path
         id="path384"
         style="fill:none;stroke:#00ff00;stroke-width:0.28346458;stroke-miterlimit:4;stroke-opacity:1;stroke-dasharray:none"
         d="m 972.36083,366.04025 -4.758,-3.233 5.707,-0.737 m -21.255,3.97 4.758,-3.233 -5.707,-0.737 m 13.696,17.225 -2.594,-5.372 -2.593,5.372 m 2.593,8.813 0,-14.185 m 5.957,-11.002 c 4.324,0.72 7.289,2.199 7.289,3.907 0,2.415 -5.93,4.373 -13.246,4.373 -7.314,0 -13.245,-1.958 -13.245,-4.373 0,-1.696 2.922,-3.166 7.193,-3.89"
         inkscape:connector-curvature="0" /><path
         d="m 963.49022,463.98572 39.05408,0 m -125.83118,0 79.539,0 m -36.1033,-3.7625 79.5391,0 m -166.4197,0.0502 79.5391,0 m -123.0913,3.71228 79.539,0 m -166.3162,0 79.539,0 m -36.1031,-3.76251 79.5388,0 m -166.4195,0.0502 79.5389,0 m -123.0908,3.71241 79.5389,0 m -126.5467,0 39.7696,0 m -36.1033,-3.7625 79.539,0 m 311.3506,-3.66219 39.05408,0 m -125.83118,0 79.539,0 m -36.1033,-3.76249 79.5391,0 m -166.4197,0.0501 79.5391,0 m -123.0913,3.71228 79.539,0 m -166.3162,0 79.539,0 m -36.1031,-3.7625 79.5388,0 m -166.4195,0.0501 79.5389,0 m -123.0908,3.71239 79.5389,0 m -126.5467,0 39.7696,0 m -36.1033,-3.76249 79.539,0 m 311.3506,-18.52348 39.05408,0 m 0,-7.42474 -39.05408,0 m 0,-7.53269 39.05408,0 m 0,-7.42473 -39.05408,0 m -86.7771,22.38216 79.539,0 m 0,-7.42474 -79.539,0 m 0,-7.53269 79.539,0 m 0,-7.42473 -79.539,0 m 122.9748,26.15199 -79.5391,0 m 0,-7.53234 79.5391,0 m 0,-7.42473 -79.5391,0 m 0,-7.53269 79.5391,0 m -86.8806,22.53992 -79.5391,0 m 79.5391,-14.95707 -79.5391,0 m 0,7.42473 79.5391,0 m -79.5391,-14.95742 79.5391,0 m -123.0913,18.66971 79.539,0 m 0,-7.42473 -79.539,0 m 0,-7.5327 79.539,0 m 0,-7.42473 -79.539,0 m -86.7772,22.38216 79.539,0 m 0,-7.42473 -79.539,0 m 0,-7.5327 79.539,0 m 0,-7.42473 -79.539,0 m 122.9747,26.15199 -79.5388,0 m 0,-7.53233 79.5388,0 m 0,-7.42475 -79.5388,0 m 0,-7.53269 79.5388,0 m -86.8806,22.53993 -79.5389,0 m 79.5389,-14.95708 -79.5389,0 m 0,7.42474 79.5389,0 m -79.5389,-14.95743 79.5389,0 m -123.0908,18.66984 79.5389,0 m 0,-7.42474 -79.5389,0 m 0,-7.53269 79.5389,0 m 0,-7.42473 -79.5389,0 m -47.0078,22.38216 39.7696,0 m 0,-7.42474 -39.7696,0 m 0,-7.53269 39.7696,0 m 0,-7.42473 -39.7696,0 m 83.2053,26.15199 -79.539,0 m 0,-7.53234 79.539,0 m 0,-7.42473 -79.539,0 m 0,-7.53269 79.539,0 m 311.3506,33.58124 39.05408,0 m 0,-7.42473 -39.05408,0 m -86.7771,7.42473 79.539,0 m 0,-7.42473 -79.539,0 m 43.4357,3.66223 79.5391,0 m -166.4197,0.0501 79.5391,0 m -123.0913,3.71228 79.539,0 m 0,-7.42473 -79.539,0 m -86.7772,7.42473 79.539,0 m 0,-7.42473 -79.539,0 m 43.4359,3.66224 79.5388,0 m -166.4195,0.0501 79.5389,0 m -123.0908,3.7124 79.5389,0 m 0,-7.42473 -79.5389,0 m -47.0078,7.42473 39.7696,0 m 0,-7.42473 -39.7696,0 m 3.6663,3.66223 79.539,0 m -83.21462,67.6836 0,-14.275 -14.2,0 0,-28.1 14.2,0 0,-122.45 -14.375,0 0,-28.075 14.375,0 0,-114.8 -14.175,0 0,-28.05 14.175,0 0,-4.25 433.625,0 0,4.25 14.1,0 0,28.05 -14.1,0 0,114.8 14.175,0 0,28.075 -14.175,0 0,122.35 14.2,0 0,28.1 -14.2,0 0,14.375 -433.625,0 z m 36.025,-8.025 35.425,0 0,-11.275 -35.425,0 0,11.275 z m 327.07496,0 35.42504,0 0,-11.275 -35.42504,0 0,11.275 z M 786.2,503.65732 c 2.35035,0 4.25,-1.92466 4.25,-4.275 0,-2.35034 -1.89965,-4.25 -4.25,-4.25 -2.35032,0 -4.25,1.89966 -4.25,4.25 0,2.35034 1.89968,4.275 4.25,4.275 z m -204.425,-94.5 c 2.57777,0 4.675,-2.07221 4.675,-4.65 0,-2.57779 -2.09723,-4.675 -4.675,-4.675 -2.57781,0 -4.65,2.09721 -4.65,4.675 0,2.57779 2.07219,4.65 4.65,4.65 z m 407.225,0 c 0.15688,0.0159 0.31392,0 0.47504,0 2.57776,0 4.67496,-2.07221 4.67496,-4.65 0,-2.57779 -2.0972,-4.675 -4.67496,-4.675 -2.57784,0 -4.65,2.09721 -4.65008,4.675 0,2.41668 1.82144,4.41098 4.17504,4.65 z m -346.65,-52.25 209.57496,0 c 3.13184,0 5.65008,-2.51816 5.65008,-5.65 l 0,-67.85 c 0,-3.13183 -2.51824,-5.65 -5.65008,-5.65 l -209.57496,0 c -3.13184,0 -5.65,2.51817 -5.65,5.65 l 0,67.85 c 0,3.13184 2.51816,5.65 5.65,5.65 z m 319.85,-8.475 c 12.49768,0 22.62496,-10.14173 22.62496,-22.65 0,-12.50827 -10.12728,-22.65 -22.62496,-22.65 -12.49768,0 -22.62496,10.14173 -22.62496,22.65 0,12.50827 10.12728,22.65 22.62496,22.65 z m -380.7,-80.15 c 2.57777,0 4.675,-2.09721 4.675,-4.675 0,-2.57779 -2.09723,-4.65 -4.675,-4.65 -2.57781,0 -4.65,2.07221 -4.65,4.65 0,2.57779 2.07219,4.675 4.65,4.675 z m 407.7,0 c 2.57776,0 4.67496,-2.09721 4.67504,-4.675 0,-2.57779 -2.09728,-4.65 -4.67504,-4.65 -2.57784,0 -4.65,2.07221 -4.65,4.65 0,2.57779 2.07216,4.675 4.65,4.675 z m -384.65,-74.45 35.45,0 0,-11.25 -35.45,0 0,11.25 z m 327.12504,0 35.44992,0 0,-11.25 -35.44992,0 0,11.25 z M 785.85,190.90732 c 2.35032,0 4.25,-1.92466 4.25,-4.275 0,-2.35034 -1.89968,-4.25 -4.25,-4.25 -2.35035,0 -4.275,1.89966 -4.275,4.25 0,2.35034 1.92465,4.275 4.275,4.275 z m 134.20712,18.05055 79.5391,0 m -166.4197,0.0492 79.5391,0 m -166.4326,-0.0493 79.5388,0 m -166.4195,0.0492 79.5389,0 m -166.4323,-0.0492 79.539,0 m 311.3506,-3.59426 39.05408,0 m -125.83118,0 79.539,0 m -166.5361,-1e-4 79.539,0 m -166.3162,0 79.539,0 m -166.5357,3e-5 79.5389,0 m -126.5467,0 39.7696,0 m 354.7863,51.12701 39.05408,0 m -125.83118,0 79.539,0 m -36.1033,-3.69273 79.5391,0 m -166.4197,0.0492 79.5391,0 m -123.0913,3.64344 79.539,0 m -166.3162,0 79.539,0 m -36.1031,-3.69274 79.5388,0 m -166.4195,0.0492 79.5389,0 m -123.0908,3.64355 79.5389,0 m -126.5467,0 39.7696,0 m -36.1033,-3.69272 79.539,0 m 311.3506,-18.18 39.05408,0 m 0,-7.28706 -39.05408,0 m 0,-7.39301 39.05408,0 m 0,-7.28706 -39.05408,0 m -86.7771,21.96713 79.539,0 m 0,-7.28706 -79.539,0 m 0,-7.39301 79.539,0 m 0,-7.28706 -79.539,0 m 122.9748,25.66706 -79.5391,0 m 0,-7.39267 79.5391,0 m 0,-7.28705 -79.5391,0 m 0,-7.39301 79.5391,0 m -86.8806,22.12195 -79.5391,0 m 79.5391,-14.67971 -79.5391,0 m 0,7.28705 79.5391,0 m -79.5391,-14.68007 79.5391,0 m -123.0913,18.32352 79.539,0 m 0,-7.28706 -79.539,0 m 0,-7.39301 79.539,0 m 0,-7.28706 -79.539,0 m -86.7772,21.96713 79.539,0 m 0,-7.28706 -79.539,0 m 0,-7.39301 79.539,0 m 0,-7.28706 -79.539,0 m 122.9747,25.66706 -79.5388,0 m 0,-7.39266 79.5388,0 m 0,-7.28706 -79.5388,0 m 0,-7.39301 79.5388,0 m -86.8806,22.12195 -79.5389,0 m 79.5389,-14.67971 -79.5389,0 m 0,7.28705 79.5389,0 m -79.5389,-14.68006 79.5389,0 m -123.0908,18.32363 79.5389,0 m 0,-7.28706 -79.5389,0 m 0,-7.39301 79.5389,0 m 0,-7.28706 -79.5389,0 m -47.0078,21.96713 39.7696,0 m 0,-7.28706 -39.7696,0 m 0,-7.39301 39.7696,0 m 0,-7.28706 -39.7696,0 m 83.2053,25.66706 -79.539,0 m 0,-7.39267 79.539,0 m 0,-7.28705 -79.539,0 m 0,-7.39301 79.539,0 m 311.3506,32.95854 39.05408,0 m 0,-7.28706 -39.05408,0 m -86.7771,7.28706 79.539,0 m 0,-7.28706 -79.539,0 m 43.4357,3.59432 79.5391,0 m -166.4197,0.0492 79.5391,0 m -123.0913,3.64344 79.539,0 m 0,-7.28705 -79.539,0 m -86.7772,7.28705 79.539,0 m 0,-7.28705 -79.539,0 m 43.4359,3.59432 79.5388,0 m -166.4195,0.0492 79.5389,0 m -123.0908,3.64356 79.5389,0 m 0,-7.28706 -79.5389,0 m -47.0078,7.28706 39.7696,0 m 0,-7.28706 -39.7696,0 m 3.6663,3.59433 79.539,0"
         style="color:#000000;fill:none;stroke:#ff0000;stroke-width:0.28346458;stroke-linecap:butt;stroke-linejoin:round;stroke-miterlimit:4;stroke-opacity:1;stroke-dasharray:none;stroke-dashoffset:0;marker:none;visibility:visible;display:inline;overflow:visible;enable-background:accumulate"
         id="path4276"
         inkscape:connector-curvature="0" /><path
         id="path374-2"
         style="fill:none;stroke:#00ff00;stroke-width:0.28346458;stroke-miterlimit:4;stroke-opacity:1;stroke-dasharray:none"
         d="m 708.36202,376.71628 c 0,0.851 -0.013,1.582 -0.059,2.254 l 1.151,0 0.061,-1.433 0.044,0 c 0.329,0.97 1.135,1.582 2.018,1.582 0.134,0 0.238,-0.015 0.359,-0.03 l 0,-1.239 c -0.134,0.03 -0.27,0.03 -0.449,0.03 -0.926,0 -1.585,-0.686 -1.763,-1.671 -0.032,-0.179 -0.045,-0.403 -0.045,-0.612 l 0,-3.85 -1.317,0 0,4.969 z m -2.902,-0.657 c 0.014,0.822 -0.345,2.12 -1.823,2.12 -1.346,0 -1.913,-1.209 -2.018,-2.12 l 3.841,0 z m -3.857,-0.939 c 0.031,-1.776 1.152,-2.508 2.482,-2.508 0.941,0 1.524,0.164 2.004,0.373 l 0.238,-0.939 c -0.463,-0.209 -1.271,-0.463 -2.422,-0.463 -2.226,0 -3.555,1.477 -3.555,3.656 0,2.179 1.284,3.88 3.391,3.88 2.376,0 2.989,-2.06 2.989,-3.388 0,-0.268 -0.013,-0.463 -0.045,-0.611 l -5.082,0 z m -4.253,-3.373 1.3129,0 0,10.5961 -1.3129,0 0,-10.5961 z m -3.524,0 1.3141,0 0,10.5961 -1.3141,0 0,-10.5961 z m -7.375,3.597 c 0,-1.582 0.896,-2.777 2.179,-2.777 1.253,0 2.194,1.18 2.194,2.807 0,1.223 -0.612,2.76 -2.164,2.76 -1.538,0 -2.209,-1.432 -2.209,-2.79 z m 5.715,0.074 c 0,-2.671 -1.865,-3.835 -3.596,-3.835 -1.94,0 -3.462,1.432 -3.462,3.716 0,2.402 1.597,3.82 3.581,3.82 2.075,0 3.477,-1.507 3.477,-3.701 z m -11.268,1.298 c 0,0.851 -0.015,1.582 -0.06,2.254 l 1.149,0 0.06,-1.433 0.045,0 c 0.328,0.97 1.134,1.582 2.014,1.582 0.135,0 0.239,-0.015 0.358,-0.03 l 0,-1.239 c -0.134,0.03 -0.268,0.03 -0.447,0.03 -0.926,0 -1.582,-0.686 -1.761,-1.671 -0.03,-0.179 -0.045,-0.403 -0.045,-0.612 l 0,-3.85 -1.313,0 0,4.969 z m -3.36,3.985 0,-1.731 1.88,0 0,-1 -1.88,0 0,-3.895 c 0,-0.895 0.254,-1.402 0.985,-1.402 0.358,0 0.567,0.029 0.761,0.089 l 0.06,-0.999 c -0.254,-0.09 -0.657,-0.18 -1.164,-0.18 -0.612,0 -1.104,0.209 -1.418,0.553 -0.358,0.402 -0.507,1.044 -0.507,1.894 l 0,3.94 -1.119,0 0,1 1.119,0 0,1.343 1.283,0.388 z m -9.808,-3.686 c 0,0.761 -0.014,1.358 -0.059,1.955 l 1.164,0 0.075,-1.194 0.029,0 c 0.358,0.672 1.194,1.343 2.388,1.343 1,0 2.552,-0.597 2.552,-3.074 l 0,-4.298 -1.314,0 0,4.164 c 0,1.164 -0.432,2.133 -1.671,2.133 -0.851,0 -1.522,-0.612 -1.761,-1.342 -0.059,-0.164 -0.089,-0.389 -0.089,-0.612 l 0,-4.343 -1.314,0 0,5.268 z m -7.375,-1.671 c 0,-1.582 0.895,-2.777 2.179,-2.777 1.254,0 2.193,1.18 2.193,2.807 0,1.223 -0.611,2.76 -2.163,2.76 -1.537,0 -2.209,-1.432 -2.209,-2.79 z m 5.716,0.074 c 0,-2.671 -1.866,-3.835 -3.597,-3.835 -1.94,0 -3.462,1.432 -3.462,3.716 0,2.402 1.597,3.82 3.582,3.82 2.074,0 3.477,-1.507 3.477,-3.701 z m -7.987,-3.417 c -0.343,-0.164 -1.104,-0.418 -2.074,-0.418 -2.179,0 -3.597,1.477 -3.597,3.685 0,2.225 1.522,3.851 3.88,3.851 0.776,0 1.463,-0.194 1.821,-0.388 l -0.298,-1 c -0.314,0.164 -0.806,0.343 -1.523,0.343 -1.656,0 -2.551,-1.238 -2.551,-2.73 0,-1.671 1.074,-2.702 2.506,-2.702 0.747,0 1.239,0.179 1.612,0.343 l 0.224,-0.984 z m 29.6483,16.95129 c 0.048,-0.009 0.097,-0.017 0.148,-0.017 l 2.83,0 c 0.052,0 0.101,0.008 0.149,0.017 l 0.146,0 c 0.706,0 0.923,0.19 0.923,0.911 0,1.732 -1.386,3.449 -3.81,3.449 -2.498,0 -3.985,-1.647 -3.985,-4.1 0,-1.832 1.111,-3.824 4.057,-3.824 l 2.32,0.32 c 0.495,0.092 0.962,0.455 0.902,1.026 -0.042,0.388 -0.341,0.744 -0.902,0.662 l -2.317,-0.358 0,-0.003 c -1.226,0 -1.949,0.806 -1.949,1.917 0,0 -0.341,2.889 1.919,2.889 0.923,0 1.635,-0.685 1.768,-1.627 l -2.048,0 c -0.353,0 -0.639,-0.289 -0.639,-0.64 0,-0.297 0.204,-0.545 0.48,-0.616 l 0,-0.006 0.011,0 z m -14.494,-1.339 0,3.533 c 0,1.515 -1.529,2.021 -4.309,2.021 l -1.839,-0.302 c -0.438,-0.092 -0.841,-0.33 -0.841,-0.84 0,-0.395 0.279,-0.844 0.841,-0.76 l 1.995,0.318 0.718,0 c 0.707,0 1.327,-0.09 1.327,-0.695 l 0,-2.584 c 0,-0.779 -0.707,-1.529 -1.862,-1.529 -0.721,0 -1.17,0.388 -1.17,0.865 0,0.635 0.478,0.91 1.358,1.039 0,0 0.606,0.123 0.438,0.752 -0.169,0.631 -0.957,0.533 -0.957,0.533 -1.617,-0.187 -2.945,-0.679 -2.945,-2.424 0,-1.33 1.184,-2.152 2.381,-2.152 1.112,0 2.065,0.318 2.888,1.227 0.028,-0.649 0.332,-1.227 1.24,-1.227 0.506,0 0.953,0.332 0.953,0.809 0,0.332 -0.216,0.533 -0.216,1.416 m 25.047,5.732 -1.202,0 c -0.475,0 -0.871,-0.32 -0.997,-0.756 -0.115,0.475 -0.488,0.723 -1.011,0.723 -0.015,0 -0.028,-0.002 -0.043,-0.002 -0.046,0.008 -0.096,0.014 -0.145,0.014 l -1.128,0 c -0.393,0 -0.709,-0.317 -0.709,-0.709 0,-0.393 0.316,-0.711 0.709,-0.711 l 0.262,0 0,-5.463 c 0,-0.692 0.418,-1.053 1.054,-1.053 0.635,0 1.055,0.361 1.055,1.053 l 0,4.252 1.116,0.843 1.039,0 c 0.575,0 1.041,0.192 1.041,0.768 0,0.574 -0.466,1.041 -1.041,1.041 z m -15.638,-6.254 -2.194,2.944 1.559,1.63 c 0.188,0.203 0.317,0.319 0.317,0.696 0,0.533 -0.519,0.951 -0.996,0.951 -0.317,0 -0.591,-0.174 -0.808,-0.404 l -1.831,-2.036 c 0,0 -0.336,-0.308 -0.336,-0.923 0,-0.639 0.565,-1.254 0.565,-1.254 l 1.992,-2.815 c 0.159,-0.232 0.433,-0.492 0.952,-0.492 0.564,0 0.997,0.492 0.997,1.025 0,0.346 -0.145,0.579 -0.217,0.678 z m -5.917,9.065 c -0.014,0 -0.028,-0.004 -0.041,-0.004 -0.048,0.011 -0.096,0.015 -0.146,0.015 l -1.129,0 c -0.392,0 -0.709,-0.316 -0.709,-0.709 0,-0.394 0.317,-0.711 0.709,-0.711 l 0.263,0 0,-8.306 c 0,-0.692 0.419,-1.053 1.053,-1.053 0.636,0 1.054,0.361 1.054,1.053 l 0,8.662 c 0,0.691 -0.418,1.053 -1.054,1.053 z m -12.236,-9.327 -1.925,5.387 c -0.203,0.57 -0.753,0.951 -1.367,0.951 0,0 0,0 -0.01,0 -0.6,-0.002 -1.1377,-0.367 -1.3506,-0.914 l -1.2828,-3.052 -1.2828,3.052 c -0.2121,0.545 -0.7473,0.908 -1.3457,0.914 0,0 -0.01,0 -0.01,0 -0.018,0 -0.035,-0.004 -0.053,-0.004 -0.054,0.012 -0.109,0.022 -0.166,0.022 l -2.0934,0 c -0.391,0 -0.7101,-0.318 -0.7101,-0.711 0,-0.393 0.3191,-0.711 0.7101,-0.711 l 0.7832,0 -1.7633,-4.934 c -0.1949,-0.541 0.088,-1.136 0.6301,-1.33 0.1152,-0.041 0.2344,-0.062 0.35,-0.062 0.4281,0 0.8289,0.265 0.9809,0.693 l 1.3789,3.858 1.6304,-3.879 c 0.025,-0.057 0.052,-0.108 0.084,-0.157 0.01,-0.013 0.017,-0.023 0.025,-0.037 0.026,-0.037 0.057,-0.074 0.088,-0.109 0.013,-0.012 0.026,-0.027 0.04,-0.039 0.034,-0.033 0.071,-0.065 0.1097,-0.094 0.011,-0.008 0.023,-0.017 0.034,-0.025 0.05,-0.033 0.1055,-0.063 0.1621,-0.088 0,-0.002 0.01,-0.006 0.015,-0.008 0.01,-0.004 0.02,-0.004 0.03,-0.01 0.045,-0.017 0.09,-0.031 0.1364,-0.041 0.018,-0.006 0.037,-0.009 0.056,-0.013 0.057,-0.01 0.116,-0.016 0.1762,-0.018 4e-4,0 0,0 0,0 8e-4,0 8e-4,0 8e-4,0 0,0 0,0 0,0 0,0 0,0 0,0 0.06,0.002 0.1188,0.008 0.1774,0.018 0.018,0.004 0.037,0.007 0.055,0.013 0.047,0.01 0.092,0.024 0.1364,0.041 0.01,0.004 0.021,0.006 0.033,0.01 0,0.002 0.01,0.006 0.013,0.008 0.056,0.025 0.1105,0.055 0.1613,0.088 0.013,0.008 0.023,0.017 0.035,0.025 0.038,0.029 0.074,0.059 0.1089,0.094 0.013,0.012 0.027,0.027 0.041,0.041 0.031,0.031 0.059,0.068 0.086,0.107 0.01,0.014 0.019,0.024 0.027,0.037 0.031,0.049 0.059,0.1 0.083,0.157 l 0,0.009 0,0 1.6265,3.87 1.378,-3.858 c 0.152,-0.428 0.552,-0.693 0.98,-0.693 0.116,0 0.236,0.021 0.351,0.062 0.542,0.194 0.824,0.789 0.63,1.33 z m -18.5402,6.297 -0.6351,0 0,1.282 c 0,0.695 -0.4195,1.054 -1.0531,1.054 -0.6356,0 -1.0539,-0.359 -1.0539,-1.054 l 0,-1.286 -0.036,0 c -0.3922,0 -0.7101,-0.318 -0.7101,-0.711 0,-0.392 0.3179,-0.71 0.7101,-0.71 l 0.036,0 0,-5.303 c 0,-0.692 0.4183,-1.053 1.0539,-1.053 0.6336,0 1.0531,0.361 1.0531,1.053 l 0,5.34 0.6351,0 c 0.6211,0 0.952,0.189 0.952,0.693 0,0.506 -0.3309,0.695 -0.952,0.695 z m -10.1699,-6.33 0,2.332 c 0,0.032 -0.01,0.059 -0.01,0.088 0,0.084 0.01,0.166 0.01,0.258 l 0,5.5 c 0,0.705 -0.4625,1.182 -1.1832,1.182 -0.7215,0 -1.1828,-0.477 -1.1828,-1.182 l 0,-5.689 c 0,-1.413 -0.7941,-2.049 -2.1512,-2.049 -1.3574,0 -2.1511,0.636 -2.1511,2.049 l 0,5.689 c 0,0.65 -0.3981,1.103 -1.0289,1.168 -0.057,0.016 -0.1153,0.025 -0.1774,0.025 l -2.9828,0 c -0.3922,0 -0.7109,-0.316 -0.7109,-0.709 0,-0.394 0.3187,-0.711 0.7109,-0.711 l 1.8223,0 0,-5.273 c 0,-2.859 1.7609,-4.143 4.5179,-4.143 1.2688,0 2.3231,0.276 3.0957,0.85 l 0,-0.096 c 0,-0.392 0.3176,-0.711 0.7102,-0.711 l 0.7113,0 c 0.3918,0 0.711,0.319 0.711,0.711 0,0.393 -0.3192,0.711 -0.711,0.711 z m 3.7875,9.354 c -0.048,0.013 -0.097,0.017 -0.1492,0.017 l -1.1285,0 c -0.3918,0 -0.7098,-0.316 -0.7098,-0.709 0,-0.394 0.318,-0.711 0.7098,-0.711 l 0.1613,0 0,-8.306 c 0,-0.692 0.4188,-1.053 1.0531,-1.053 0.6364,0 1.0532,0.361 1.0532,1.053 l 0,8.662 c 0,0.668 -0.391,1.023 -0.9899,1.047 z m 10.2223,0.064 c 0.6055,0 1.0973,-0.492 1.0973,-1.099 0,-0.604 -0.4918,-1.094 -1.0973,-1.094 -0.6059,0 -1.0961,0.49 -1.0961,1.094 0,0.607 0.4902,1.099 1.0961,1.099 m -1.0531,-3.955 c 0,0.563 0.2308,1.053 1.0531,1.053 0.8226,0 1.0539,-0.49 1.0539,-1.053 l 0,-5.818 c 0,-0.561 -0.2313,-1.053 -1.0539,-1.053 -0.8223,0 -1.0531,0.492 -1.0531,1.053 l 0,5.818 z"
         inkscape:connector-curvature="0" /></g><g
       id="g4555"
       transform="translate(-32.244068,40.72935)"><path
         id="path7263"
         transform="matrix(0.8,0,0,-0.8,0,861.73232)"
         d="m 282,57.59375 -181.875,0.25 C 72.68095,57.612688 47.232662,79.975888 47,107.375 c -0.638638,52.43881 3.357862,127.43024 5.09375,179.875 -0.214363,11.68922 8.8626,18.64061 20.125,15.4375 23.77126,-9.7465 33.02552,-12.39671 39.71875,-22.21875 l -29.46875,-44.65625 17.625,-11.65625 21.875,33.125 c 3.93176,-11.52335 8.88441,-27.2784 16.875,-49.8125 2.27694,-5.3849 8.95459,-9.78921 14.8125,-9.78125 l 117.25,-0.125 c 11.71084,-0.21779 29.78072,-4.88288 40.25,-10.09375 19.81558,-8.94858 50.93631,-22.22584 65.96875,-28.9375 C 392.15742,151.81959 386.36195,136.04903 385.1875,134 358.7373,92.468412 367.82011,107.00266 358.71875,92.46875 349.22418,76.686213 333.09325,57.8273 282,57.59375 z m -104.84375,8.6875 44.25,0 0,14.125 -44.25,0 0,-14.125 z m 169.6875,30.0625 23.5,37.5 -11.90625,7.4375 -23.5,-37.46875 11.90625,-7.46875 z m -291,29.4375 14.125,0 0,44.25 -14.125,0 0,-44.25 z m 130.96875,11.375 77.75,0 c 4.90749,0 8.875,3.96753 8.875,8.875 l 0,0.0312 c 0,4.90749 -3.96751,8.875 -8.875,8.875 l -77.75,0 c -4.90749,0 -8.84375,-3.96751 -8.84375,-8.875 l 0,-0.0312 c 0,-4.90747 3.93626,-8.875 8.84375,-8.875 z m 134.4375,1.375 c 2.0719,-0.0688 4.10598,1.06277 5.03125,3.0625 1.23369,2.66631 0.0727,5.8288 -2.59375,7.0625 -2.66634,1.2337 -5.82881,0.0725 -7.0625,-2.59375 -1.2337,-2.66635 -0.0727,-5.8288 2.59375,-7.0625 0.66659,-0.30842 1.34062,-0.44581 2.03125,-0.46875 z m -217.4375,25.1875 c 2.93792,0 5.3125,2.37456 5.3125,5.3125 0,2.9379 -2.37458,5.3125 -5.3125,5.3125 -2.93793,0 -5.34375,-2.3746 -5.34375,-5.3125 0,-2.93794 2.40583,-5.3125 5.34375,-5.3125 z"
         style="fill:none;stroke:#ff0000;stroke-width:0.35433072;stroke-miterlimit:4;stroke-opacity:1;stroke-dasharray:none"
         inkscape:connector-curvature="0" /><g
         transform="translate(-614.07853,290.20756)"
         style="stroke:#00ff00;stroke-width:0.28346458;stroke-miterlimit:4;stroke-opacity:1;stroke-dasharray:none"
         id="g4549"><path
           id="path7592"
           style="fill:none;stroke:#00ff00;stroke-width:0.28346458;stroke-miterlimit:4;stroke-opacity:1;stroke-dasharray:none"
           d="m 811.9619,472.54888 c 0,0.133 -0.013,0.313 -0.048,0.443 -0.156,0.661 -0.732,1.213 -1.523,1.213 -1.092,0 -1.74,-0.961 -1.74,-2.233 0,-1.173 0.588,-2.146 1.716,-2.146 0.707,0 1.355,0.48 1.547,1.26 0.035,0.145 0.048,0.287 0.048,0.455 l 0,1.008 z m 1.043,5.073 0,-7.017 c 0,-0.516 0.024,-1.104 0.048,-1.498 l -0.935,0 -0.048,1.009 -0.036,0 c -0.312,-0.65 -1.007,-1.141 -1.955,-1.141 -1.404,0 -2.496,1.187 -2.496,2.951 -0.012,1.929 1.201,3.106 2.603,3.106 0.9,0 1.488,-0.42 1.751,-0.876 l 0.025,0 0,3.466 1.043,0 z m -8.807,-4.52 c 0,0.683 -0.012,1.269 -0.047,1.81 l 0.923,0 0.049,-1.152 0.036,0 c 0.263,0.779 0.911,1.272 1.619,1.272 0.107,0 0.191,-0.013 0.288,-0.024 l 0,-0.996 c -0.109,0.025 -0.217,0.025 -0.36,0.025 -0.744,0 -1.272,-0.552 -1.416,-1.343 -0.024,-0.145 -0.036,-0.325 -0.036,-0.493 l 0,-3.094 -1.056,0 0,3.995 z m -2.725,-1.033 c -1.152,0.025 -2.459,-0.181 -2.459,-1.307 0,-0.695 0.456,-1.009 0.984,-1.009 0.767,0 1.258,0.482 1.426,0.974 0.036,0.119 0.049,0.239 0.049,0.336 l 0,1.006 z m 1.019,-1.571 c 0,-0.504 0.024,-0.997 0.084,-1.391 l -0.948,0 -0.084,0.73 -0.036,0 c -0.323,-0.454 -0.947,-0.862 -1.774,-0.862 -1.176,0 -1.776,0.828 -1.776,1.668 0,1.402 1.248,2.17 3.49,2.158 l 0,0.119 c 0,0.468 -0.131,1.344 -1.319,1.333 -0.551,0 -1.115,-0.157 -1.524,-0.433 l -0.238,0.708 c 0.479,0.3 1.187,0.504 1.919,0.504 1.774,0 2.206,-1.212 2.206,-2.362 l 0,-2.172 z m -5.317,-1.187 c -0.277,-0.131 -0.887,-0.336 -1.667,-0.336 -1.7505,0 -2.8904,1.187 -2.8904,2.962 0,1.788 1.2239,3.095 3.1184,3.095 0.624,0 1.176,-0.157 1.462,-0.312 l -0.239,-0.804 c -0.252,0.133 -0.647,0.276 -1.223,0.276 -1.3317,0 -2.0512,-0.994 -2.0512,-2.194 0,-1.344 0.8637,-2.172 2.0142,-2.172 0.6,0 0.997,0.144 1.297,0.276 l 0.179,-0.791 z m -13.5957,0.61 c 0.2637,-0.034 0.6477,-0.046 1.0547,-0.046 2.2446,0 3.4438,1.246 3.4438,3.429 0.0113,1.907 -1.0676,3.119 -3.2754,3.119 -0.5395,0 -0.9481,-0.049 -1.2231,-0.108 l 0,-6.394 z m -1.0437,7.149 c 0.6355,0.108 1.3918,0.179 2.2187,0.179 1.5,0 2.5668,-0.358 3.275,-1.007 0.7321,-0.658 1.152,-1.594 1.152,-2.903 0,-1.318 -0.4199,-2.397 -1.1633,-3.14 -0.7676,-0.755 -2.0168,-1.163 -3.5867,-1.163 -0.7563,0 -1.368,0.034 -1.8957,0.095 l 0,7.939 z m -6.0484,-6.691 c 0.4683,-0.301 1.1402,-0.529 1.8597,-0.529 1.0676,0 1.6906,0.564 1.6906,1.381 0,0.741 -0.432,1.186 -1.5222,1.593 -1.3195,0.48 -2.1352,1.176 -2.1352,2.303 0,1.26 1.0434,2.195 2.6145,2.195 0.8152,0 1.4265,-0.192 1.7746,-0.396 l -0.2871,-0.852 c -0.2528,0.157 -0.7926,0.384 -1.5238,0.384 -1.104,0 -1.5235,-0.659 -1.5235,-1.21 0,-0.756 0.4926,-1.127 1.6074,-1.561 1.3672,-0.527 2.0508,-1.186 2.0508,-2.372 0,-1.248 -0.9109,-2.34 -2.818,-2.34 -0.7792,0 -1.6308,0.24 -2.0625,0.526 l 0.2747,0.878 z"
           inkscape:connector-curvature="0" /></g></g><g
       id="g4585"
       transform="translate(-562.16853,-165.66954)"><path
         d="m 1002.5242,738.85069 -36.42568,0 m 0,-6.32687 36.42568,0 m 0,-6.23646 -36.42568,0 m 0,-6.32714 36.42568,0 m 0,-6.23646 -36.42568,0 m -7.2837,25.12693 -80.0403,0 m 0,-6.32687 80.0403,0 m 0,-6.23646 -80.0403,0 m 0,-6.32714 80.0403,0 m 0,-6.23646 -80.0403,0 m 123.74968,21.96656 -80.04018,0 m 0,-6.32684 80.04018,0 m 0,-6.23646 -80.04018,0 m 0,-6.32714 80.04018,0 m -87.42808,18.93257 -80.04,0 m 80.0401,-12.5633 -80.0401,0 m 0,6.23646 80.0401,0 m -80.0401,-12.5636 80.0401,0 m -43.8263,22.00873 -80.0402,0 m 0,-6.32687 80.0402,0 m 0,-6.23646 -80.0402,0 m 0,-6.32714 80.0402,0 m 0,-6.23646 -80.0402,0 m -7.2837,25.12693 -80.0401,0 m 0,-6.32687 80.0401,0 m 0,-6.23646 -80.0401,0 m 0,-6.32714 80.0401,0 m 0,-6.23646 -80.0401,0 m 123.7495,21.96656 -80.0401,0 m 0,-6.32684 80.0401,0 m 0,-6.23646 -80.0401,0 m 0,-6.32714 80.0401,0 m -87.4279,18.93257 -80.0403,0 m 80.0403,-12.5633 -80.0403,0 m 0,6.23646 80.0403,0 m -80.0403,-12.5636 80.0403,0 m -43.8268,22.00863 -80.0402,0 m 0,-6.32687 80.0402,0 m 0,-6.23646 -80.0402,0 m 0,-6.32714 80.0402,0 m 0,-6.23646 -80.0402,0 m -7.2837,25.12693 -40.0766,0 m 0,-6.32687 40.0766,0 m 0,-6.23646 -40.0766,0 m 0,-6.32714 40.0766,0 m 0,-6.23646 -40.0766,0 m 83.786,21.96656 -80.0401,0 m 0,-6.32684 80.0401,0 m 0,-6.23646 -80.0401,0 m 0,-6.32714 80.0401,0 m -48.26122,85.90744 0,-14.15 -35.45,0 0,-23.7 7.95,0 0,4.075 6.85,0 0,-4.075 4.725,0 0,-8.6 -4.725,0 0,-4.1 -6.85,0 0,4.1 -7.95,0 0,-167.775 7.95,0 0,4.1 6.85,0 0,-4.1 4.725,0 0,-8.6 -4.725,0 0,-4.075 -6.85,0 0,4.075 -7.95,0 0,-23.675 35.45,0 0,-14.175 35.425,0 0,14.175 141.5,0 0,7.95 -4.075,0 0,6.875 4.075,0 0,4.725 8.6,0 0,-4.725 4.1,0 0,-6.875 -4.1,0 0,-7.95 141.55,0 0,-14.175 35.42496,0 0,14.175 35.50004,0 0,23.65 -7.84996,0 0,-4.075 -6.87504,0 0,4.075 -4.82496,0 0,8.6 4.82496,0 0,4.1 6.87504,0 0,-4.1 7.84996,0 0,167.8 -7.975,0 0,-4.075 -6.85,0 0,4.075 -4.72496,0 0,8.6 4.72496,0 0,4.1 6.85,0 0,-4.1 7.975,0 0,23.7 -35.74996,0 0,14.15 -35.42504,0 0,-14.15 -141.25,0 0,-7.975 4.1,0 0,-6.85 -4.1,0 0,-4.725 -8.6,0 0,4.725 -4.1,0 0,6.85 4.1,0 0,7.975 -141.55,0 0,14.15 z m 99.225,-91.8 120.35,0 c 3.926,0 7.1,-3.17401 7.1,-7.1 l 0,-27.5 c 0,-3.92598 -3.174,-7.1 -7.1,-7.1 l -120.35,0 c -3.92599,0 -7.1,3.17402 -7.1,7.1 l 0,27.5 c 0,3.92599 3.17401,7.1 7.1,7.1 z"
         style="color:#000000;fill:none;stroke:#ff0000;stroke-width:0.28346458;stroke-linecap:butt;stroke-linejoin:round;stroke-miterlimit:4;stroke-opacity:1;stroke-dasharray:none;stroke-dashoffset:0;marker:none;visibility:visible;display:inline;overflow:visible;enable-background:accumulate"
         id="path6424"
         inkscape:connector-curvature="0"
         sodipodi:nodetypes="cccccccccccccccccccccccccccccccccccccccccccccccccccccccccccccccccccccccccccccccccccccccccccccccccccccccccccccccccccccccccccccccccccccccccccccccccccccccccccccccccccccccccccccccccccccccccccccccccsssssssss" /><g
         id="text3370"
         style="font-size:32px;font-style:normal;font-weight:normal;line-height:125%;letter-spacing:0px;word-spacing:0px;fill:none;stroke:#00ff00;stroke-width:0.28346458;stroke-miterlimit:4;stroke-opacity:1;font-family:Sans"
         transform="scale(1,-1)"><path
           id="path4445"
           style="font-size:12.80000019px;font-variant:normal;font-stretch:normal;text-align:center;text-anchor:middle;stroke:#00ff00;font-family:Ubuntu;-inkscape-font-specification:Ubuntu"
           d="m 644.55565,-609.76819 0,-9.728 1.1904,-0.2048 0,3.4048 c 0.22186,-0.0853 0.45653,-0.14933 0.704,-0.192 0.256,-0.0512 0.50773,-0.0768 0.7552,-0.0768 0.52906,10e-6 0.96853,0.0768 1.3184,0.2304 0.34986,0.14507 0.6272,0.35414 0.832,0.6272 0.21333,0.26454 0.36266,0.58454 0.448,0.96 0.0853,0.37547 0.12799,0.78934 0.128,1.2416 l 0,3.7376 -1.1904,0 0,-3.4816 c 0,-0.40959 -0.0299,-0.75946 -0.0896,-1.0496 -0.0512,-0.29013 -0.1408,-0.52479 -0.2688,-0.704 -0.128,-0.17919 -0.29867,-0.30719 -0.512,-0.384 -0.21334,-0.0853 -0.47787,-0.12799 -0.7936,-0.128 -0.128,10e-6 -0.26027,0.009 -0.3968,0.0256 -0.13654,0.0171 -0.2688,0.0384 -0.3968,0.064 -0.11947,0.0171 -0.2304,0.0384 -0.3328,0.064 -0.0939,0.0256 -0.16213,0.0469 -0.2048,0.064 l 0,5.5296 -1.1904,0"
           inkscape:connector-curvature="0" /><path
           id="path4447"
           style="font-size:12.80000019px;font-variant:normal;font-stretch:normal;text-align:center;text-anchor:middle;stroke:#00ff00;font-family:Ubuntu;-inkscape-font-specification:Ubuntu"
           d="m 652.96925,-616.42419 2.5216,0 0,0.9984 -2.5216,0 0,3.072 c 0,0.3328 0.0256,0.61014 0.0768,0.832 0.0512,0.21334 0.128,0.384 0.2304,0.512 0.1024,0.11947 0.2304,0.2048 0.384,0.256 0.1536,0.0512 0.3328,0.0768 0.5376,0.0768 0.3584,0 0.64426,-0.0384 0.8576,-0.1152 0.22186,-0.0853 0.37546,-0.14506 0.4608,-0.1792 l 0.2304,0.9856 c -0.11947,0.0597 -0.32854,0.13227 -0.6272,0.2176 -0.29867,0.0939 -0.64,0.1408 -1.024,0.1408 -0.45227,0 -0.82773,-0.0555 -1.1264,-0.1664 -0.29013,-0.11947 -0.5248,-0.2944 -0.704,-0.5248 -0.1792,-0.2304 -0.3072,-0.512 -0.384,-0.8448 -0.0683,-0.34133 -0.1024,-0.73386 -0.1024,-1.1776 l 0,-5.9392 1.1904,-0.2048 0,2.0608"
           inkscape:connector-curvature="0" /><path
           id="path4449"
           style="font-size:12.80000019px;font-variant:normal;font-stretch:normal;text-align:center;text-anchor:middle;stroke:#00ff00;font-family:Ubuntu;-inkscape-font-specification:Ubuntu"
           d="m 658.11925,-616.42419 2.5216,0 0,0.9984 -2.5216,0 0,3.072 c 0,0.3328 0.0256,0.61014 0.0768,0.832 0.0512,0.21334 0.128,0.384 0.2304,0.512 0.1024,0.11947 0.2304,0.2048 0.384,0.256 0.1536,0.0512 0.3328,0.0768 0.5376,0.0768 0.3584,0 0.64426,-0.0384 0.8576,-0.1152 0.22186,-0.0853 0.37546,-0.14506 0.4608,-0.1792 l 0.2304,0.9856 c -0.11947,0.0597 -0.32854,0.13227 -0.6272,0.2176 -0.29867,0.0939 -0.64,0.1408 -1.024,0.1408 -0.45227,0 -0.82773,-0.0555 -1.1264,-0.1664 -0.29013,-0.11947 -0.5248,-0.2944 -0.704,-0.5248 -0.1792,-0.2304 -0.3072,-0.512 -0.384,-0.8448 -0.0683,-0.34133 -0.1024,-0.73386 -0.1024,-1.1776 l 0,-5.9392 1.1904,-0.2048 0,2.0608"
           inkscape:connector-curvature="0" /><path
           id="path4451"
           style="font-size:12.80000019px;font-variant:normal;font-stretch:normal;text-align:center;text-anchor:middle;stroke:#00ff00;font-family:Ubuntu;-inkscape-font-specification:Ubuntu"
           d="m 666.77645,-613.08339 c 0,-0.77653 -0.192,-1.37386 -0.576,-1.792 -0.384,-0.41813 -0.896,-0.62719 -1.536,-0.6272 -0.3584,1e-5 -0.64,0.0128 -0.8448,0.0384 -0.19627,0.0256 -0.35413,0.0555 -0.4736,0.0896 l 0,4.1984 c 0.14507,0.11947 0.35413,0.23467 0.6272,0.3456 0.27306,0.11094 0.57173,0.1664 0.896,0.1664 0.34133,0 0.63146,-0.0597 0.8704,-0.1792 0.24746,-0.128 0.448,-0.29866 0.6016,-0.512 0.1536,-0.22186 0.26453,-0.47786 0.3328,-0.768 0.0683,-0.29866 0.1024,-0.61866 0.1024,-0.96 m 1.2416,0 c -10e-6,0.50347 -0.0683,0.96854 -0.2048,1.3952 -0.12801,0.42667 -0.32001,0.7936 -0.576,1.1008 -0.256,0.3072 -0.57174,0.54614 -0.9472,0.7168 -0.36694,0.17067 -0.78934,0.256 -1.2672,0.256 -0.384,0 -0.72534,-0.0512 -1.024,-0.1536 -0.29013,-0.1024 -0.50773,-0.20053 -0.6528,-0.2944 l 0,2.6624 -1.1904,0 0,-8.8192 c 0.2816,-0.0683 0.63147,-0.14079 1.0496,-0.2176 0.42667,-0.0853 0.91733,-0.12799 1.472,-0.128 0.512,10e-6 0.9728,0.0811 1.3824,0.2432 0.4096,0.16214 0.75946,0.39254 1.0496,0.6912 0.29013,0.29867 0.51199,0.66561 0.6656,1.1008 0.16213,0.42667 0.24319,0.90881 0.2432,1.4464"
           inkscape:connector-curvature="0" /><path
           id="path4453"
           style="font-size:12.80000019px;font-variant:normal;font-stretch:normal;text-align:center;text-anchor:middle;stroke:#00ff00;font-family:Ubuntu;-inkscape-font-specification:Ubuntu"
           d="m 671.25445,-610.62579 c 0.4864,0 0.8448,-0.064 1.0752,-0.192 0.23893,-0.128 0.3584,-0.3328 0.3584,-0.6144 0,-0.29013 -0.1152,-0.52053 -0.3456,-0.6912 -0.2304,-0.17066 -0.61013,-0.36266 -1.1392,-0.576 -0.256,-0.1024 -0.50347,-0.2048 -0.7424,-0.3072 -0.2304,-0.11093 -0.43093,-0.23893 -0.6016,-0.384 -0.17067,-0.14506 -0.3072,-0.31999 -0.4096,-0.5248 -0.1024,-0.20479 -0.1536,-0.45653 -0.1536,-0.7552 0,-0.58879 0.2176,-1.05386 0.6528,-1.3952 0.4352,-0.34986 1.02827,-0.52479 1.7792,-0.5248 0.18773,10e-6 0.37547,0.0128 0.5632,0.0384 0.18773,0.0171 0.36266,0.0427 0.5248,0.0768 0.16213,0.0256 0.30293,0.0555 0.4224,0.0896 0.128,0.0341 0.22613,0.064 0.2944,0.0896 l -0.2176,1.024 c -0.128,-0.0683 -0.32854,-0.13653 -0.6016,-0.2048 -0.27307,-0.0768 -0.6016,-0.11519 -0.9856,-0.1152 -0.3328,10e-6 -0.62293,0.0683 -0.8704,0.2048 -0.24747,0.12801 -0.3712,0.33281 -0.3712,0.6144 0,0.14507 0.0256,0.27307 0.0768,0.384 0.0597,0.11094 0.14507,0.21334 0.256,0.3072 0.11947,0.0853 0.26453,0.16641 0.4352,0.2432 0.17067,0.0768 0.37547,0.15787 0.6144,0.2432 0.31573,0.11947 0.59733,0.23894 0.8448,0.3584 0.24746,0.11094 0.45653,0.2432 0.6272,0.3968 0.1792,0.1536 0.31573,0.34134 0.4096,0.5632 0.0939,0.21334 0.1408,0.47787 0.1408,0.7936 0,0.6144 -0.2304,1.07947 -0.6912,1.3952 -0.45227,0.31573 -1.1008,0.4736 -1.9456,0.4736 -0.5888,0 -1.0496,-0.0512 -1.3824,-0.1536 -0.3328,-0.0939 -0.55893,-0.1664 -0.6784,-0.2176 l 0.2176,-1.024 c 0.13653,0.0512 0.35413,0.128 0.6528,0.2304 0.29867,0.1024 0.69547,0.1536 1.1904,0.1536"
           inkscape:connector-curvature="0" /><path
           id="path4455"
           style="font-size:12.80000019px;font-variant:normal;font-stretch:normal;text-align:center;text-anchor:middle;stroke:#00ff00;font-family:Ubuntu;-inkscape-font-specification:Ubuntu"
           d="m 676.81365,-610.45939 c 0,0.2304 -0.0768,0.43094 -0.2304,0.6016 -0.1536,0.17067 -0.36267,0.256 -0.6272,0.256 -0.26453,0 -0.4736,-0.0853 -0.6272,-0.256 -0.1536,-0.17066 -0.2304,-0.3712 -0.2304,-0.6016 0,-0.2304 0.0768,-0.43093 0.2304,-0.6016 0.1536,-0.17066 0.36267,-0.256 0.6272,-0.256 0.26453,0 0.4736,0.0853 0.6272,0.256 0.1536,0.17067 0.2304,0.3712 0.2304,0.6016 m 0,-5.1072 c 0,0.23041 -0.0768,0.43094 -0.2304,0.6016 -0.1536,0.17067 -0.36267,0.25601 -0.6272,0.256 -0.26453,10e-6 -0.4736,-0.0853 -0.6272,-0.256 -0.1536,-0.17066 -0.2304,-0.37119 -0.2304,-0.6016 0,-0.23039 0.0768,-0.43093 0.2304,-0.6016 0.1536,-0.17066 0.36267,-0.25599 0.6272,-0.256 0.26453,10e-6 0.4736,0.0853 0.6272,0.256 0.1536,0.17067 0.2304,0.37121 0.2304,0.6016"
           inkscape:connector-curvature="0" /><path
           id="path4457"
           style="font-size:12.80000019px;font-variant:normal;font-stretch:normal;text-align:center;text-anchor:middle;stroke:#00ff00;font-family:Ubuntu;-inkscape-font-specification:Ubuntu"
           d="m 678.44045,-607.40019 -1.216,0 4.3392,-12.3904 1.1904,0 -4.3136,12.3904"
           inkscape:connector-curvature="0" /><path
           id="path4459"
           style="font-size:12.80000019px;font-variant:normal;font-stretch:normal;text-align:center;text-anchor:middle;stroke:#00ff00;font-family:Ubuntu;-inkscape-font-specification:Ubuntu"
           d="m 683.36545,-607.40019 -1.216,0 4.3392,-12.3904 1.1904,0 -4.3136,12.3904"
           inkscape:connector-curvature="0" /><path
           id="path4461"
           style="font-size:12.80000019px;font-variant:normal;font-stretch:normal;text-align:center;text-anchor:middle;stroke:#00ff00;font-family:Ubuntu;-inkscape-font-specification:Ubuntu"
           d="m 692.57845,-610.43379 c -0.1024,0.0683 -0.30294,0.15787 -0.6016,0.2688 -0.29013,0.1024 -0.63147,0.1536 -1.024,0.1536 -0.40107,0 -0.7808,-0.064 -1.1392,-0.192 -0.34987,-0.128 -0.65707,-0.32426 -0.9216,-0.5888 -0.26453,-0.27306 -0.4736,-0.61013 -0.6272,-1.0112 -0.1536,-0.40106 -0.2304,-0.87893 -0.2304,-1.4336 0,-0.48639 0.0725,-0.93013 0.2176,-1.3312 0.14507,-0.40959 0.35414,-0.75946 0.6272,-1.0496 0.2816,-0.29866 0.62293,-0.52906 1.024,-0.6912 0.40107,-0.17066 0.85333,-0.25599 1.3568,-0.256 0.55467,10e-6 1.0368,0.0427 1.4464,0.128 0.41813,0.0768 0.768,0.14934 1.0496,0.2176 l 0,5.9392 c 0,1.024 -0.26454,1.7664 -0.7936,2.2272 -0.52907,0.4608 -1.3312,0.6912 -2.4064,0.6912 -0.41813,0 -0.81493,-0.0341 -1.1904,-0.1024 -0.36693,-0.0683 -0.68693,-0.14933 -0.96,-0.2432 l 0.2176,-1.0368 c 0.23893,0.0939 0.52907,0.17493 0.8704,0.2432 0.34987,0.0768 0.71253,0.1152 1.088,0.1152 0.70827,0 1.216,-0.1408 1.5232,-0.4224 0.31573,-0.2816 0.4736,-0.7296 0.4736,-1.344 l 0,-0.2816 m -0.0128,-4.9408 c -0.11947,-0.0341 -0.2816,-0.064 -0.4864,-0.0896 -0.19627,-0.0341 -0.46507,-0.0512 -0.8064,-0.0512 -0.64,10e-6 -1.13493,0.20907 -1.4848,0.6272 -0.34133,0.41814 -0.512,0.97281 -0.512,1.664 0,0.384 0.0469,0.71254 0.1408,0.9856 0.1024,0.27307 0.23467,0.4992 0.3968,0.6784 0.17067,0.1792 0.36267,0.31147 0.576,0.3968 0.22187,0.0853 0.448,0.128 0.6784,0.128 0.31573,0 0.60587,-0.0427 0.8704,-0.128 0.26453,-0.0939 0.4736,-0.20053 0.6272,-0.32 l 0,-3.8912"
           inkscape:connector-curvature="0" /><path
           id="path4463"
           style="font-size:12.80000019px;font-variant:normal;font-stretch:normal;text-align:center;text-anchor:middle;stroke:#00ff00;font-family:Ubuntu;-inkscape-font-specification:Ubuntu"
           d="m 696.99605,-609.76819 -1.1904,0 0,-6.656 1.1904,0 0,6.656 m -0.6016,-7.8592 c -0.21333,10e-6 -0.3968,-0.0683 -0.5504,-0.2048 -0.14507,-0.14506 -0.2176,-0.33706 -0.2176,-0.576 0,-0.23892 0.0725,-0.42666 0.2176,-0.5632 0.1536,-0.14506 0.33707,-0.21759 0.5504,-0.2176 0.21333,10e-6 0.39253,0.0725 0.5376,0.2176 0.1536,0.13654 0.2304,0.32428 0.2304,0.5632 0,0.23894 -0.0768,0.43094 -0.2304,0.576 -0.14507,0.13654 -0.32427,0.20481 -0.5376,0.2048"
           inkscape:connector-curvature="0" /><path
           id="path4465"
           style="font-size:12.80000019px;font-variant:normal;font-stretch:normal;text-align:center;text-anchor:middle;stroke:#00ff00;font-family:Ubuntu;-inkscape-font-specification:Ubuntu"
           d="m 700.16925,-616.42419 2.5216,0 0,0.9984 -2.5216,0 0,3.072 c 0,0.3328 0.0256,0.61014 0.0768,0.832 0.0512,0.21334 0.128,0.384 0.2304,0.512 0.1024,0.11947 0.2304,0.2048 0.384,0.256 0.1536,0.0512 0.3328,0.0768 0.5376,0.0768 0.3584,0 0.64426,-0.0384 0.8576,-0.1152 0.22186,-0.0853 0.37546,-0.14506 0.4608,-0.1792 l 0.2304,0.9856 c -0.11947,0.0597 -0.32854,0.13227 -0.6272,0.2176 -0.29867,0.0939 -0.64,0.1408 -1.024,0.1408 -0.45227,0 -0.82774,-0.0555 -1.1264,-0.1664 -0.29013,-0.11947 -0.5248,-0.2944 -0.704,-0.5248 -0.1792,-0.2304 -0.3072,-0.512 -0.384,-0.8448 -0.0683,-0.34133 -0.1024,-0.73386 -0.1024,-1.1776 l 0,-5.9392 1.1904,-0.2048 0,2.0608"
           inkscape:connector-curvature="0" /><path
           id="path4467"
           style="font-size:12.80000019px;font-variant:normal;font-stretch:normal;text-align:center;text-anchor:middle;stroke:#00ff00;font-family:Ubuntu;-inkscape-font-specification:Ubuntu"
           d="m 704.20565,-609.76819 0,-9.728 1.1904,-0.2048 0,3.4048 c 0.22187,-0.0853 0.45653,-0.14933 0.704,-0.192 0.256,-0.0512 0.50773,-0.0768 0.7552,-0.0768 0.52906,10e-6 0.96853,0.0768 1.3184,0.2304 0.34986,0.14507 0.6272,0.35414 0.832,0.6272 0.21333,0.26454 0.36266,0.58454 0.448,0.96 0.0853,0.37547 0.128,0.78934 0.128,1.2416 l 0,3.7376 -1.1904,0 0,-3.4816 c 0,-0.40959 -0.0299,-0.75946 -0.0896,-1.0496 -0.0512,-0.29013 -0.1408,-0.52479 -0.2688,-0.704 -0.128,-0.17919 -0.29867,-0.30719 -0.512,-0.384 -0.21334,-0.0853 -0.47787,-0.12799 -0.7936,-0.128 -0.128,10e-6 -0.26027,0.009 -0.3968,0.0256 -0.13653,0.0171 -0.2688,0.0384 -0.3968,0.064 -0.11947,0.0171 -0.2304,0.0384 -0.3328,0.064 -0.0939,0.0256 -0.16213,0.0469 -0.2048,0.064 l 0,5.5296 -1.1904,0"
           inkscape:connector-curvature="0" /><path
           id="path4469"
           style="font-size:12.80000019px;font-variant:normal;font-stretch:normal;text-align:center;text-anchor:middle;stroke:#00ff00;font-family:Ubuntu;-inkscape-font-specification:Ubuntu"
           d="m 716.80486,-609.96019 c -0.27308,0.0683 -0.63574,0.1408 -1.088,0.2176 -0.44374,0.0768 -0.96001,0.1152 -1.5488,0.1152 -0.51201,0 -0.94294,-0.0725 -1.2928,-0.2176 -0.34987,-0.1536 -0.63147,-0.36693 -0.8448,-0.64 -0.21334,-0.27306 -0.36694,-0.59306 -0.4608,-0.96 -0.0939,-0.37546 -0.14081,-0.78933 -0.1408,-1.2416 l 0,-3.7376 1.1904,0 0,3.4816 c -1e-5,0.81067 0.12799,1.39094 0.384,1.7408 0.25599,0.34987 0.68693,0.5248 1.2928,0.5248 0.12799,0 0.26026,-0.004 0.3968,-0.0128 0.13652,-0.009 0.26452,-0.0171 0.384,-0.0256 0.11946,-0.0171 0.22612,-0.0299 0.32,-0.0384 0.10239,-0.0171 0.17492,-0.0341 0.2176,-0.0512 l 0,-5.6192 1.1904,0 0,6.464"
           inkscape:connector-curvature="0" /><path
           id="path4471"
           style="font-size:12.80000019px;font-variant:normal;font-stretch:normal;text-align:center;text-anchor:middle;stroke:#00ff00;font-family:Ubuntu;-inkscape-font-specification:Ubuntu"
           d="m 720.04605,-616.12979 c 0.14507,-0.0939 0.36267,-0.19199 0.6528,-0.2944 0.29867,-0.10239 0.64,-0.15359 1.024,-0.1536 0.47787,1e-5 0.90027,0.0853 1.2672,0.256 0.37546,0.17067 0.6912,0.40961 0.9472,0.7168 0.256,0.30721 0.448,0.67414 0.576,1.1008 0.13653,0.42667 0.2048,0.89601 0.2048,1.408 0,0.5376 -0.0811,1.024 -0.2432,1.4592 -0.1536,0.42667 -0.37547,0.78934 -0.6656,1.088 -0.29014,0.29867 -0.64,0.52907 -1.0496,0.6912 -0.4096,0.16213 -0.8704,0.2432 -1.3824,0.2432 -0.55467,0 -1.04533,-0.0384 -1.472,-0.1152 -0.42666,-0.0768 -0.77653,-0.1536 -1.0496,-0.2304 l 0,-9.536 1.1904,-0.2048 0,3.5712 m 0,5.3248 c 0.11947,0.0341 0.28587,0.0683 0.4992,0.1024 0.22187,0.0256 0.49493,0.0384 0.8192,0.0384 0.64,0 1.152,-0.20906 1.536,-0.6272 0.384,-0.42666 0.576,-1.02826 0.576,-1.8048 0,-0.34133 -0.0341,-0.66133 -0.1024,-0.96 -0.0683,-0.29866 -0.1792,-0.55466 -0.3328,-0.768 -0.1536,-0.22186 -0.35413,-0.39253 -0.6016,-0.512 -0.23893,-0.12799 -0.52907,-0.19199 -0.8704,-0.192 -0.32427,10e-6 -0.62293,0.0555 -0.896,0.1664 -0.27307,0.11094 -0.48213,0.22614 -0.6272,0.3456 l 0,4.2112"
           inkscape:connector-curvature="0" /><path
           id="path4473"
           style="font-size:12.80000019px;font-variant:normal;font-stretch:normal;text-align:center;text-anchor:middle;stroke:#00ff00;font-family:Ubuntu;-inkscape-font-specification:Ubuntu"
           d="m 727.81365,-610.45939 c 0,0.2304 -0.0768,0.43094 -0.2304,0.6016 -0.1536,0.17067 -0.36267,0.256 -0.6272,0.256 -0.26454,0 -0.4736,-0.0853 -0.6272,-0.256 -0.1536,-0.17066 -0.2304,-0.3712 -0.2304,-0.6016 0,-0.2304 0.0768,-0.43093 0.2304,-0.6016 0.1536,-0.17066 0.36266,-0.256 0.6272,-0.256 0.26453,0 0.4736,0.0853 0.6272,0.256 0.1536,0.17067 0.2304,0.3712 0.2304,0.6016"
           inkscape:connector-curvature="0" /><path
           id="path4475"
           style="font-size:12.80000019px;font-variant:normal;font-stretch:normal;text-align:center;text-anchor:middle;stroke:#00ff00;font-family:Ubuntu;-inkscape-font-specification:Ubuntu"
           d="m 732.44845,-609.61459 c -0.5376,0 -1.0112,-0.0853 -1.4208,-0.256 -0.40107,-0.17066 -0.7424,-0.4096 -1.024,-0.7168 -0.27307,-0.3072 -0.47787,-0.66986 -0.6144,-1.088 -0.13653,-0.42666 -0.2048,-0.896 -0.2048,-1.408 0,-0.51199 0.0725,-0.98133 0.2176,-1.408 0.1536,-0.42666 0.36693,-0.79359 0.64,-1.1008 0.27307,-0.31573 0.60587,-0.55893 0.9984,-0.7296 0.40106,-0.17919 0.8448,-0.26879 1.3312,-0.2688 0.29866,10e-6 0.59733,0.0256 0.896,0.0768 0.29866,0.0512 0.58453,0.13227 0.8576,0.2432 l -0.2688,1.0112 c -0.1792,-0.0853 -0.38827,-0.15359 -0.6272,-0.2048 -0.2304,-0.0512 -0.47787,-0.0768 -0.7424,-0.0768 -0.6656,10e-6 -1.1776,0.20907 -1.536,0.6272 -0.34987,0.41814 -0.5248,1.02827 -0.5248,1.8304 0,0.3584 0.0384,0.68694 0.1152,0.9856 0.0853,0.29867 0.21333,0.55467 0.384,0.768 0.1792,0.21334 0.40533,0.37974 0.6784,0.4992 0.27306,0.11094 0.60586,0.1664 0.9984,0.1664 0.31573,0 0.6016,-0.0299 0.8576,-0.0896 0.256,-0.0597 0.45653,-0.12373 0.6016,-0.192 l 0.1664,0.9984 c -0.0683,0.0427 -0.1664,0.0853 -0.2944,0.128 -0.128,0.0341 -0.27307,0.064 -0.4352,0.0896 -0.16214,0.0341 -0.33707,0.0597 -0.5248,0.0768 -0.1792,0.0256 -0.35414,0.0384 -0.5248,0.0384"
           inkscape:connector-curvature="0" /><path
           id="path4477"
           style="font-size:12.80000019px;font-variant:normal;font-stretch:normal;text-align:center;text-anchor:middle;stroke:#00ff00;font-family:Ubuntu;-inkscape-font-specification:Ubuntu"
           d="m 741.20585,-613.09619 c 0,0.52907 -0.0768,1.00694 -0.2304,1.4336 -0.1536,0.42667 -0.3712,0.7936 -0.6528,1.1008 -0.27307,0.3072 -0.6016,0.54614 -0.9856,0.7168 -0.384,0.16213 -0.80214,0.2432 -1.2544,0.2432 -0.45227,0 -0.8704,-0.0811 -1.2544,-0.2432 -0.384,-0.17066 -0.7168,-0.4096 -0.9984,-0.7168 -0.27307,-0.3072 -0.4864,-0.67413 -0.64,-1.1008 -0.1536,-0.42666 -0.2304,-0.90453 -0.2304,-1.4336 0,-0.52053 0.0768,-0.99413 0.2304,-1.4208 0.1536,-0.43519 0.36693,-0.80639 0.64,-1.1136 0.2816,-0.30719 0.6144,-0.54186 0.9984,-0.704 0.384,-0.17066 0.80213,-0.25599 1.2544,-0.256 0.45226,10e-6 0.8704,0.0853 1.2544,0.256 0.384,0.16214 0.71253,0.39681 0.9856,0.704 0.2816,0.30721 0.4992,0.67841 0.6528,1.1136 0.1536,0.42667 0.2304,0.90027 0.2304,1.4208 m -1.2416,0 c 0,-0.75093 -0.17067,-1.34399 -0.512,-1.7792 -0.3328,-0.44373 -0.78934,-0.66559 -1.3696,-0.6656 -0.58027,10e-6 -1.04107,0.22187 -1.3824,0.6656 -0.3328,0.43521 -0.4992,1.02827 -0.4992,1.7792 0,0.75094 0.1664,1.34827 0.4992,1.792 0.34133,0.4352 0.80213,0.6528 1.3824,0.6528 0.58026,0 1.0368,-0.2176 1.3696,-0.6528 0.34133,-0.44373 0.512,-1.04106 0.512,-1.792"
           inkscape:connector-curvature="0" /><path
           id="path4479"
           style="font-size:12.80000019px;font-variant:normal;font-stretch:normal;text-align:center;text-anchor:middle;stroke:#00ff00;font-family:Ubuntu;-inkscape-font-specification:Ubuntu"
           d="m 742.88066,-616.23219 c 0.27306,-0.0683 0.63146,-0.14079 1.0752,-0.2176 0.45226,-0.0768 0.97279,-0.11519 1.5616,-0.1152 0.42666,10e-6 0.78506,0.0597 1.0752,0.1792 0.29012,0.11094 0.53332,0.27734 0.7296,0.4992 0.0597,-0.0427 0.15359,-0.10239 0.2816,-0.1792 0.12799,-0.0768 0.28586,-0.14933 0.4736,-0.2176 0.18772,-0.0768 0.39679,-0.14079 0.6272,-0.192 0.23039,-0.0597 0.47785,-0.0896 0.7424,-0.0896 0.51199,10e-6 0.93012,0.0768 1.2544,0.2304 0.32425,0.14507 0.57599,0.35414 0.7552,0.6272 0.18772,0.27307 0.31145,0.59734 0.3712,0.9728 0.0683,0.37547 0.10239,0.78507 0.1024,1.2288 l 0,3.7376 -1.1904,0 0,-3.4816 c -10e-6,-0.39253 -0.0213,-0.72959 -0.064,-1.0112 -0.0341,-0.28159 -0.10668,-0.51626 -0.2176,-0.704 -0.10241,-0.18773 -0.24748,-0.32426 -0.4352,-0.4096 -0.17921,-0.0939 -0.41388,-0.14079 -0.704,-0.1408 -0.40108,10e-6 -0.73388,0.0555 -0.9984,0.1664 -0.25601,0.10241 -0.43094,0.19627 -0.5248,0.2816 0.0683,0.22187 0.11946,0.46507 0.1536,0.7296 0.0341,0.26454 0.0512,0.54187 0.0512,0.832 l 0,3.7376 -1.1904,0 0,-3.4816 c -10e-6,-0.39253 -0.0213,-0.72959 -0.064,-1.0112 -0.0427,-0.28159 -0.11948,-0.51626 -0.2304,-0.704 -0.10241,-0.18773 -0.24748,-0.32426 -0.4352,-0.4096 -0.17921,-0.0939 -0.40961,-0.14079 -0.6912,-0.1408 -0.11947,10e-6 -0.24747,0.004 -0.384,0.0128 -0.13654,0.009 -0.26881,0.0213 -0.3968,0.0384 -0.11947,0.009 -0.23041,0.0213 -0.3328,0.0384 -0.10241,0.0171 -0.17067,0.0299 -0.2048,0.0384 l 0,5.6192 -1.1904,0 0,-6.464"
           inkscape:connector-curvature="0" /><path
           id="path4481"
           style="font-size:12.80000019px;font-variant:normal;font-stretch:normal;text-align:center;text-anchor:middle;stroke:#00ff00;font-family:Ubuntu;-inkscape-font-specification:Ubuntu"
           d="m 753.79046,-607.40019 -1.216,0 4.3392,-12.3904 1.1904,0 -4.3136,12.3904"
           inkscape:connector-curvature="0" /><path
           id="path4483"
           style="font-size:12.80000019px;font-variant:normal;font-stretch:normal;text-align:center;text-anchor:middle;stroke:#00ff00;font-family:Ubuntu;-inkscape-font-specification:Ubuntu"
           d="m 761.42905,-619.70099 c 0.34986,1e-5 0.64853,0.0256 0.896,0.0768 0.256,0.0512 0.4352,0.0981 0.5376,0.1408 l -0.2176,1.024 c -0.1024,-0.0512 -0.24747,-0.0981 -0.4352,-0.1408 -0.18774,-0.0512 -0.41814,-0.0768 -0.6912,-0.0768 -0.55467,1e-5 -0.94293,0.15361 -1.1648,0.4608 -0.22187,0.29868 -0.3328,0.70401 -0.3328,1.216 l 0,0.576 2.56,0 0,0.9984 -2.56,0 0,5.6576 -1.1904,0 0,-7.2576 c 0,-0.85332 0.20907,-1.51039 0.6272,-1.9712 0.41813,-0.46932 1.0752,-0.70399 1.9712,-0.704"
           inkscape:connector-curvature="0" /><path
           id="path4485"
           style="font-size:12.80000019px;font-variant:normal;font-stretch:normal;text-align:center;text-anchor:middle;stroke:#00ff00;font-family:Ubuntu;-inkscape-font-specification:Ubuntu"
           d="m 766.03346,-610.62579 c 0.28159,0 0.52906,-0.004 0.7424,-0.0128 0.22186,-0.0171 0.40533,-0.0427 0.5504,-0.0768 l 0,-1.984 c -0.0853,-0.0427 -0.22614,-0.0768 -0.4224,-0.1024 -0.18774,-0.0341 -0.41814,-0.0512 -0.6912,-0.0512 -0.17921,0 -0.37121,0.0128 -0.576,0.0384 -0.19627,0.0256 -0.37974,0.0811 -0.5504,0.1664 -0.16214,0.0768 -0.29867,0.18774 -0.4096,0.3328 -0.11094,0.13654 -0.1664,0.32 -0.1664,0.5504 0,0.42667 0.13653,0.72534 0.4096,0.896 0.27306,0.16214 0.64426,0.2432 1.1136,0.2432 m -0.1024,-5.9648 c 0.47786,10e-6 0.87893,0.064 1.2032,0.192 0.33279,0.11947 0.59733,0.29441 0.7936,0.5248 0.20479,0.22187 0.34986,0.49067 0.4352,0.8064 0.0853,0.30721 0.12799,0.64854 0.128,1.024 l 0,4.16 c -0.10241,0.0171 -0.24748,0.0427 -0.4352,0.0768 -0.17921,0.0256 -0.38401,0.0512 -0.6144,0.0768 -0.23041,0.0256 -0.48214,0.0469 -0.7552,0.064 -0.26454,0.0256 -0.52907,0.0384 -0.7936,0.0384 -0.37547,0 -0.72107,-0.0384 -1.0368,-0.1152 -0.31574,-0.0768 -0.5888,-0.19626 -0.8192,-0.3584 -0.2304,-0.17066 -0.4096,-0.39253 -0.5376,-0.6656 -0.128,-0.27306 -0.192,-0.6016 -0.192,-0.9856 0,-0.36693 0.0725,-0.68266 0.2176,-0.9472 0.1536,-0.26453 0.3584,-0.47786 0.6144,-0.64 0.256,-0.16213 0.55466,-0.28159 0.896,-0.3584 0.34133,-0.0768 0.69973,-0.11519 1.0752,-0.1152 0.11946,10e-6 0.24319,0.009 0.3712,0.0256 0.12799,0.009 0.24746,0.0256 0.3584,0.0512 0.11946,0.0171 0.22186,0.0341 0.3072,0.0512 0.0853,0.0171 0.14506,0.0299 0.1792,0.0384 l 0,-0.3328 c -1e-5,-0.19626 -0.0213,-0.38826 -0.064,-0.576 -0.0427,-0.19626 -0.11947,-0.36693 -0.2304,-0.512 -0.11094,-0.15359 -0.26454,-0.27306 -0.4608,-0.3584 -0.18774,-0.0939 -0.43521,-0.14079 -0.7424,-0.1408 -0.39254,10e-6 -0.73814,0.0299 -1.0368,0.0896 -0.29014,0.0512 -0.50774,0.10667 -0.6528,0.1664 l -0.1408,-0.9856 c 0.1536,-0.0683 0.4096,-0.13226 0.768,-0.192 0.35839,-0.0683 0.74666,-0.10239 1.1648,-0.1024"
           inkscape:connector-curvature="0" /><path
           id="path4487"
           style="font-size:12.80000019px;font-variant:normal;font-stretch:normal;text-align:center;text-anchor:middle;stroke:#00ff00;font-family:Ubuntu;-inkscape-font-specification:Ubuntu"
           d="m 775.75485,-609.96019 c -0.27307,0.0683 -0.63574,0.1408 -1.088,0.2176 -0.44374,0.0768 -0.96,0.1152 -1.5488,0.1152 -0.512,0 -0.94293,-0.0725 -1.2928,-0.2176 -0.34987,-0.1536 -0.63147,-0.36693 -0.8448,-0.64 -0.21333,-0.27306 -0.36693,-0.59306 -0.4608,-0.96 -0.0939,-0.37546 -0.1408,-0.78933 -0.1408,-1.2416 l 0,-3.7376 1.1904,0 0,3.4816 c 0,0.81067 0.128,1.39094 0.384,1.7408 0.256,0.34987 0.68693,0.5248 1.2928,0.5248 0.128,0 0.26026,-0.004 0.3968,-0.0128 0.13653,-0.009 0.26453,-0.0171 0.384,-0.0256 0.11946,-0.0171 0.22613,-0.0299 0.32,-0.0384 0.1024,-0.0171 0.17493,-0.0341 0.2176,-0.0512 l 0,-5.6192 1.1904,0 0,6.464"
           inkscape:connector-curvature="0" /><path
           id="path4489"
           style="font-size:12.80000019px;font-variant:normal;font-stretch:normal;text-align:center;text-anchor:middle;stroke:#00ff00;font-family:Ubuntu;-inkscape-font-specification:Ubuntu"
           d="m 777.11445,-614.15859 3.1616,0 0,1.1136 -3.1616,0 0,-1.1136"
           inkscape:connector-curvature="0" /><path
           id="path4491"
           style="font-size:12.80000019px;font-variant:normal;font-stretch:normal;text-align:center;text-anchor:middle;stroke:#00ff00;font-family:Ubuntu;-inkscape-font-specification:Ubuntu"
           d="m 784.22905,-619.70099 c 0.34986,1e-5 0.64853,0.0256 0.896,0.0768 0.25599,0.0512 0.43519,0.0981 0.5376,0.1408 l -0.2176,1.024 c -0.10241,-0.0512 -0.24747,-0.0981 -0.4352,-0.1408 -0.18774,-0.0512 -0.41814,-0.0768 -0.6912,-0.0768 -0.55467,1e-5 -0.94294,0.15361 -1.1648,0.4608 -0.22187,0.29868 -0.3328,0.70401 -0.3328,1.216 l 0,0.576 2.56,0 0,0.9984 -2.56,0 0,5.6576 -1.1904,0 0,-7.2576 c 0,-0.85332 0.20906,-1.51039 0.6272,-1.9712 0.41813,-0.46932 1.07519,-0.70399 1.9712,-0.704"
           inkscape:connector-curvature="0" /><path
           id="path4493"
           style="font-size:12.80000019px;font-variant:normal;font-stretch:normal;text-align:center;text-anchor:middle;stroke:#00ff00;font-family:Ubuntu;-inkscape-font-specification:Ubuntu"
           d="m 788.83346,-610.62579 c 0.2816,0 0.52906,-0.004 0.7424,-0.0128 0.22186,-0.0171 0.40533,-0.0427 0.5504,-0.0768 l 0,-1.984 c -0.0853,-0.0427 -0.22614,-0.0768 -0.4224,-0.1024 -0.18774,-0.0341 -0.41814,-0.0512 -0.6912,-0.0512 -0.1792,0 -0.3712,0.0128 -0.576,0.0384 -0.19627,0.0256 -0.37974,0.0811 -0.5504,0.1664 -0.16214,0.0768 -0.29867,0.18774 -0.4096,0.3328 -0.11094,0.13654 -0.1664,0.32 -0.1664,0.5504 0,0.42667 0.13653,0.72534 0.4096,0.896 0.27306,0.16214 0.64426,0.2432 1.1136,0.2432 m -0.1024,-5.9648 c 0.47786,10e-6 0.87893,0.064 1.2032,0.192 0.3328,0.11947 0.59733,0.29441 0.7936,0.5248 0.20479,0.22187 0.34986,0.49067 0.4352,0.8064 0.0853,0.30721 0.12799,0.64854 0.128,1.024 l 0,4.16 c -0.10241,0.0171 -0.24747,0.0427 -0.4352,0.0768 -0.17921,0.0256 -0.384,0.0512 -0.6144,0.0768 -0.2304,0.0256 -0.48214,0.0469 -0.7552,0.064 -0.26454,0.0256 -0.52907,0.0384 -0.7936,0.0384 -0.37547,0 -0.72107,-0.0384 -1.0368,-0.1152 -0.31574,-0.0768 -0.5888,-0.19626 -0.8192,-0.3584 -0.2304,-0.17066 -0.4096,-0.39253 -0.5376,-0.6656 -0.128,-0.27306 -0.192,-0.6016 -0.192,-0.9856 0,-0.36693 0.0725,-0.68266 0.2176,-0.9472 0.1536,-0.26453 0.3584,-0.47786 0.6144,-0.64 0.256,-0.16213 0.55466,-0.28159 0.896,-0.3584 0.34133,-0.0768 0.69973,-0.11519 1.0752,-0.1152 0.11946,10e-6 0.2432,0.009 0.3712,0.0256 0.128,0.009 0.24746,0.0256 0.3584,0.0512 0.11946,0.0171 0.22186,0.0341 0.3072,0.0512 0.0853,0.0171 0.14506,0.0299 0.1792,0.0384 l 0,-0.3328 c 0,-0.19626 -0.0213,-0.38826 -0.064,-0.576 -0.0427,-0.19626 -0.11947,-0.36693 -0.2304,-0.512 -0.11094,-0.15359 -0.26454,-0.27306 -0.4608,-0.3584 -0.18774,-0.0939 -0.4352,-0.14079 -0.7424,-0.1408 -0.39254,10e-6 -0.73814,0.0299 -1.0368,0.0896 -0.29014,0.0512 -0.50773,0.10667 -0.6528,0.1664 l -0.1408,-0.9856 c 0.1536,-0.0683 0.4096,-0.13226 0.768,-0.192 0.3584,-0.0683 0.74666,-0.10239 1.1648,-0.1024"
           inkscape:connector-curvature="0" /><path
           id="path4495"
           style="font-size:12.80000019px;font-variant:normal;font-stretch:normal;text-align:center;text-anchor:middle;stroke:#00ff00;font-family:Ubuntu;-inkscape-font-specification:Ubuntu"
           d="m 794.44605,-616.12979 c 0.14506,-0.0939 0.36266,-0.19199 0.6528,-0.2944 0.29866,-0.10239 0.63999,-0.15359 1.024,-0.1536 0.47786,1e-5 0.90026,0.0853 1.2672,0.256 0.37546,0.17067 0.69119,0.40961 0.9472,0.7168 0.25599,0.30721 0.44799,0.67414 0.576,1.1008 0.13652,0.42667 0.20479,0.89601 0.2048,1.408 -1e-5,0.5376 -0.0811,1.024 -0.2432,1.4592 -0.15361,0.42667 -0.37548,0.78934 -0.6656,1.088 -0.29014,0.29867 -0.64001,0.52907 -1.0496,0.6912 -0.40961,0.16213 -0.87041,0.2432 -1.3824,0.2432 -0.55467,0 -1.04534,-0.0384 -1.472,-0.1152 -0.42667,-0.0768 -0.77654,-0.1536 -1.0496,-0.2304 l 0,-9.536 1.1904,-0.2048 0,3.5712 m 0,5.3248 c 0.11946,0.0341 0.28586,0.0683 0.4992,0.1024 0.22186,0.0256 0.49493,0.0384 0.8192,0.0384 0.63999,0 1.15199,-0.20906 1.536,-0.6272 0.38399,-0.42666 0.57599,-1.02826 0.576,-1.8048 -10e-6,-0.34133 -0.0341,-0.66133 -0.1024,-0.96 -0.0683,-0.29866 -0.17921,-0.55466 -0.3328,-0.768 -0.15361,-0.22186 -0.35414,-0.39253 -0.6016,-0.512 -0.23894,-0.12799 -0.52907,-0.19199 -0.8704,-0.192 -0.32427,10e-6 -0.62294,0.0555 -0.896,0.1664 -0.27307,0.11094 -0.48214,0.22614 -0.6272,0.3456 l 0,4.2112"
           inkscape:connector-curvature="0" /><path
           id="path4497"
           style="font-size:12.80000019px;font-variant:normal;font-stretch:normal;text-align:center;text-anchor:middle;stroke:#00ff00;font-family:Ubuntu;-inkscape-font-specification:Ubuntu"
           d="m 802.80245,-609.64019 c -0.73387,-0.0171 -1.2544,-0.17493 -1.5616,-0.4736 -0.3072,-0.29866 -0.4608,-0.76373 -0.4608,-1.3952 l 0,-7.9872 1.1904,-0.2048 0,8 c 0,0.19627 0.0171,0.3584 0.0512,0.4864 0.0341,0.128 0.0896,0.2304 0.1664,0.3072 0.0768,0.0768 0.1792,0.13654 0.3072,0.1792 0.128,0.0341 0.28586,0.064 0.4736,0.0896 l -0.1664,0.9984"
           inkscape:connector-curvature="0" /><path
           id="path4499"
           style="font-size:12.80000019px;font-variant:normal;font-stretch:normal;text-align:center;text-anchor:middle;stroke:#00ff00;font-family:Ubuntu;-inkscape-font-specification:Ubuntu"
           d="m 806.55845,-610.62579 c 0.2816,0 0.52906,-0.004 0.7424,-0.0128 0.22186,-0.0171 0.40533,-0.0427 0.5504,-0.0768 l 0,-1.984 c -0.0853,-0.0427 -0.22614,-0.0768 -0.4224,-0.1024 -0.18774,-0.0341 -0.41814,-0.0512 -0.6912,-0.0512 -0.1792,0 -0.3712,0.0128 -0.576,0.0384 -0.19627,0.0256 -0.37974,0.0811 -0.5504,0.1664 -0.16213,0.0768 -0.29867,0.18774 -0.4096,0.3328 -0.11093,0.13654 -0.1664,0.32 -0.1664,0.5504 0,0.42667 0.13653,0.72534 0.4096,0.896 0.27306,0.16214 0.64426,0.2432 1.1136,0.2432 m -0.1024,-5.9648 c 0.47786,10e-6 0.87893,0.064 1.2032,0.192 0.3328,0.11947 0.59733,0.29441 0.7936,0.5248 0.2048,0.22187 0.34986,0.49067 0.4352,0.8064 0.0853,0.30721 0.128,0.64854 0.128,1.024 l 0,4.16 c -0.1024,0.0171 -0.24747,0.0427 -0.4352,0.0768 -0.1792,0.0256 -0.384,0.0512 -0.6144,0.0768 -0.2304,0.0256 -0.48214,0.0469 -0.7552,0.064 -0.26454,0.0256 -0.52907,0.0384 -0.7936,0.0384 -0.37547,0 -0.72107,-0.0384 -1.0368,-0.1152 -0.31573,-0.0768 -0.5888,-0.19626 -0.8192,-0.3584 -0.2304,-0.17066 -0.4096,-0.39253 -0.5376,-0.6656 -0.128,-0.27306 -0.192,-0.6016 -0.192,-0.9856 0,-0.36693 0.0725,-0.68266 0.2176,-0.9472 0.1536,-0.26453 0.3584,-0.47786 0.6144,-0.64 0.256,-0.16213 0.55467,-0.28159 0.896,-0.3584 0.34133,-0.0768 0.69973,-0.11519 1.0752,-0.1152 0.11946,10e-6 0.2432,0.009 0.3712,0.0256 0.128,0.009 0.24746,0.0256 0.3584,0.0512 0.11946,0.0171 0.22186,0.0341 0.3072,0.0512 0.0853,0.0171 0.14506,0.0299 0.1792,0.0384 l 0,-0.3328 c 0,-0.19626 -0.0213,-0.38826 -0.064,-0.576 -0.0427,-0.19626 -0.11947,-0.36693 -0.2304,-0.512 -0.11094,-0.15359 -0.26454,-0.27306 -0.4608,-0.3584 -0.18774,-0.0939 -0.4352,-0.14079 -0.7424,-0.1408 -0.39254,10e-6 -0.73813,0.0299 -1.0368,0.0896 -0.29013,0.0512 -0.50773,0.10667 -0.6528,0.1664 l -0.1408,-0.9856 c 0.1536,-0.0683 0.4096,-0.13226 0.768,-0.192 0.3584,-0.0683 0.74666,-0.10239 1.1648,-0.1024"
           inkscape:connector-curvature="0" /><path
           id="path4501"
           style="font-size:12.80000019px;font-variant:normal;font-stretch:normal;text-align:center;text-anchor:middle;stroke:#00ff00;font-family:Ubuntu;-inkscape-font-specification:Ubuntu"
           d="m 812.17105,-616.12979 c 0.14507,-0.0939 0.36267,-0.19199 0.6528,-0.2944 0.29867,-0.10239 0.64,-0.15359 1.024,-0.1536 0.47787,1e-5 0.90027,0.0853 1.2672,0.256 0.37546,0.17067 0.6912,0.40961 0.9472,0.7168 0.256,0.30721 0.448,0.67414 0.576,1.1008 0.13653,0.42667 0.2048,0.89601 0.2048,1.408 0,0.5376 -0.0811,1.024 -0.2432,1.4592 -0.1536,0.42667 -0.37547,0.78934 -0.6656,1.088 -0.29014,0.29867 -0.64,0.52907 -1.0496,0.6912 -0.4096,0.16213 -0.8704,0.2432 -1.3824,0.2432 -0.55467,0 -1.04533,-0.0384 -1.472,-0.1152 -0.42666,-0.0768 -0.77653,-0.1536 -1.0496,-0.2304 l 0,-9.536 1.1904,-0.2048 0,3.5712 m 0,5.3248 c 0.11947,0.0341 0.28587,0.0683 0.4992,0.1024 0.22187,0.0256 0.49493,0.0384 0.8192,0.0384 0.64,0 1.152,-0.20906 1.536,-0.6272 0.384,-0.42666 0.576,-1.02826 0.576,-1.8048 0,-0.34133 -0.0341,-0.66133 -0.1024,-0.96 -0.0683,-0.29866 -0.1792,-0.55466 -0.3328,-0.768 -0.1536,-0.22186 -0.35413,-0.39253 -0.6016,-0.512 -0.23893,-0.12799 -0.52907,-0.19199 -0.8704,-0.192 -0.32427,10e-6 -0.62293,0.0555 -0.896,0.1664 -0.27307,0.11094 -0.48213,0.22614 -0.6272,0.3456 l 0,4.2112"
           inkscape:connector-curvature="0" /><path
           id="path4503"
           style="font-size:12.80000019px;font-variant:normal;font-stretch:normal;text-align:center;text-anchor:middle;stroke:#00ff00;font-family:Ubuntu;-inkscape-font-specification:Ubuntu"
           d="m 818.14045,-607.40019 -1.216,0 4.3392,-12.3904 1.1904,0 -4.3136,12.3904"
           inkscape:connector-curvature="0" /><path
           id="path4505"
           style="font-size:12.80000019px;font-variant:normal;font-stretch:normal;text-align:center;text-anchor:middle;stroke:#00ff00;font-family:Ubuntu;-inkscape-font-specification:Ubuntu"
           d="m 828.47985,-609.96019 c -0.27307,0.0683 -0.63574,0.1408 -1.088,0.2176 -0.44374,0.0768 -0.96,0.1152 -1.5488,0.1152 -0.512,0 -0.94294,-0.0725 -1.2928,-0.2176 -0.34987,-0.1536 -0.63147,-0.36693 -0.8448,-0.64 -0.21333,-0.27306 -0.36693,-0.59306 -0.4608,-0.96 -0.0939,-0.37546 -0.1408,-0.78933 -0.1408,-1.2416 l 0,-3.7376 1.1904,0 0,3.4816 c 0,0.81067 0.128,1.39094 0.384,1.7408 0.256,0.34987 0.68693,0.5248 1.2928,0.5248 0.128,0 0.26026,-0.004 0.3968,-0.0128 0.13653,-0.009 0.26453,-0.0171 0.384,-0.0256 0.11946,-0.0171 0.22613,-0.0299 0.32,-0.0384 0.1024,-0.0171 0.17493,-0.0341 0.2176,-0.0512 l 0,-5.6192 1.1904,0 0,6.464"
           inkscape:connector-curvature="0" /><path
           id="path4507"
           style="font-size:12.80000019px;font-variant:normal;font-stretch:normal;text-align:center;text-anchor:middle;stroke:#00ff00;font-family:Ubuntu;-inkscape-font-specification:Ubuntu"
           d="m 832.52746,-609.64019 c -0.73387,-0.0171 -1.2544,-0.17493 -1.5616,-0.4736 -0.3072,-0.29866 -0.4608,-0.76373 -0.4608,-1.3952 l 0,-7.9872 1.1904,-0.2048 0,8 c -10e-6,0.19627 0.0171,0.3584 0.0512,0.4864 0.0341,0.128 0.0896,0.2304 0.1664,0.3072 0.0768,0.0768 0.17919,0.13654 0.3072,0.1792 0.12799,0.0341 0.28586,0.064 0.4736,0.0896 l -0.1664,0.9984"
           inkscape:connector-curvature="0" /><path
           id="path4509"
           style="font-size:12.80000019px;font-variant:normal;font-stretch:normal;text-align:center;text-anchor:middle;stroke:#00ff00;font-family:Ubuntu;-inkscape-font-specification:Ubuntu"
           d="m 835.14426,-616.42419 2.5216,0 0,0.9984 -2.5216,0 0,3.072 c -10e-6,0.3328 0.0256,0.61014 0.0768,0.832 0.0512,0.21334 0.12799,0.384 0.2304,0.512 0.10239,0.11947 0.23039,0.2048 0.384,0.256 0.15359,0.0512 0.33279,0.0768 0.5376,0.0768 0.35839,0 0.64426,-0.0384 0.8576,-0.1152 0.22186,-0.0853 0.37546,-0.14506 0.4608,-0.1792 l 0.2304,0.9856 c -0.11947,0.0597 -0.32854,0.13227 -0.6272,0.2176 -0.29867,0.0939 -0.64001,0.1408 -1.024,0.1408 -0.45227,0 -0.82774,-0.0555 -1.1264,-0.1664 -0.29014,-0.11947 -0.5248,-0.2944 -0.704,-0.5248 -0.1792,-0.2304 -0.3072,-0.512 -0.384,-0.8448 -0.0683,-0.34133 -0.1024,-0.73386 -0.1024,-1.1776 l 0,-5.9392 1.1904,-0.2048 0,2.0608"
           inkscape:connector-curvature="0" /><path
           id="path4511"
           style="font-size:12.80000019px;font-variant:normal;font-stretch:normal;text-align:center;text-anchor:middle;stroke:#00ff00;font-family:Ubuntu;-inkscape-font-specification:Ubuntu"
           d="m 840.37105,-609.76819 -1.1904,0 0,-6.656 1.1904,0 0,6.656 m -0.6016,-7.8592 c -0.21333,10e-6 -0.3968,-0.0683 -0.5504,-0.2048 -0.14507,-0.14506 -0.2176,-0.33706 -0.2176,-0.576 0,-0.23892 0.0725,-0.42666 0.2176,-0.5632 0.1536,-0.14506 0.33707,-0.21759 0.5504,-0.2176 0.21333,10e-6 0.39253,0.0725 0.5376,0.2176 0.1536,0.13654 0.2304,0.32428 0.2304,0.5632 0,0.23894 -0.0768,0.43094 -0.2304,0.576 -0.14507,0.13654 -0.32427,0.20481 -0.5376,0.2048"
           inkscape:connector-curvature="0" /><path
           id="path4513"
           style="font-size:12.80000019px;font-variant:normal;font-stretch:normal;text-align:center;text-anchor:middle;stroke:#00ff00;font-family:Ubuntu;-inkscape-font-specification:Ubuntu"
           d="m 845.32345,-609.61459 c -0.5376,0 -1.0112,-0.0853 -1.4208,-0.256 -0.40107,-0.17066 -0.7424,-0.4096 -1.024,-0.7168 -0.27307,-0.3072 -0.47787,-0.66986 -0.6144,-1.088 -0.13653,-0.42666 -0.2048,-0.896 -0.2048,-1.408 0,-0.51199 0.0725,-0.98133 0.2176,-1.408 0.1536,-0.42666 0.36693,-0.79359 0.64,-1.1008 0.27307,-0.31573 0.60587,-0.55893 0.9984,-0.7296 0.40106,-0.17919 0.8448,-0.26879 1.3312,-0.2688 0.29866,10e-6 0.59733,0.0256 0.896,0.0768 0.29866,0.0512 0.58453,0.13227 0.8576,0.2432 l -0.2688,1.0112 c -0.1792,-0.0853 -0.38827,-0.15359 -0.6272,-0.2048 -0.2304,-0.0512 -0.47787,-0.0768 -0.7424,-0.0768 -0.6656,10e-6 -1.1776,0.20907 -1.536,0.6272 -0.34987,0.41814 -0.5248,1.02827 -0.5248,1.8304 0,0.3584 0.0384,0.68694 0.1152,0.9856 0.0853,0.29867 0.21333,0.55467 0.384,0.768 0.1792,0.21334 0.40533,0.37974 0.6784,0.4992 0.27306,0.11094 0.60586,0.1664 0.9984,0.1664 0.31573,0 0.6016,-0.0299 0.8576,-0.0896 0.256,-0.0597 0.45653,-0.12373 0.6016,-0.192 l 0.1664,0.9984 c -0.0683,0.0427 -0.1664,0.0853 -0.2944,0.128 -0.128,0.0341 -0.27307,0.064 -0.4352,0.0896 -0.16214,0.0341 -0.33707,0.0597 -0.5248,0.0768 -0.1792,0.0256 -0.35414,0.0384 -0.5248,0.0384"
           inkscape:connector-curvature="0" /><path
           id="path4515"
           style="font-size:12.80000019px;font-variant:normal;font-stretch:normal;text-align:center;text-anchor:middle;stroke:#00ff00;font-family:Ubuntu;-inkscape-font-specification:Ubuntu"
           d="m 854.08086,-613.09619 c -10e-6,0.52907 -0.0768,1.00694 -0.2304,1.4336 -0.15361,0.42667 -0.37121,0.7936 -0.6528,1.1008 -0.27307,0.3072 -0.60161,0.54614 -0.9856,0.7168 -0.384,0.16213 -0.80214,0.2432 -1.2544,0.2432 -0.45227,0 -0.8704,-0.0811 -1.2544,-0.2432 -0.384,-0.17066 -0.7168,-0.4096 -0.9984,-0.7168 -0.27307,-0.3072 -0.4864,-0.67413 -0.64,-1.1008 -0.1536,-0.42666 -0.2304,-0.90453 -0.2304,-1.4336 0,-0.52053 0.0768,-0.99413 0.2304,-1.4208 0.1536,-0.43519 0.36693,-0.80639 0.64,-1.1136 0.2816,-0.30719 0.6144,-0.54186 0.9984,-0.704 0.384,-0.17066 0.80213,-0.25599 1.2544,-0.256 0.45226,10e-6 0.8704,0.0853 1.2544,0.256 0.38399,0.16214 0.71253,0.39681 0.9856,0.704 0.28159,0.30721 0.49919,0.67841 0.6528,1.1136 0.15359,0.42667 0.23039,0.90027 0.2304,1.4208 m -1.2416,0 c -10e-6,-0.75093 -0.17067,-1.34399 -0.512,-1.7792 -0.3328,-0.44373 -0.78934,-0.66559 -1.3696,-0.6656 -0.58027,10e-6 -1.04107,0.22187 -1.3824,0.6656 -0.3328,0.43521 -0.4992,1.02827 -0.4992,1.7792 0,0.75094 0.1664,1.34827 0.4992,1.792 0.34133,0.4352 0.80213,0.6528 1.3824,0.6528 0.58026,0 1.0368,-0.2176 1.3696,-0.6528 0.34133,-0.44373 0.51199,-1.04106 0.512,-1.792"
           inkscape:connector-curvature="0" /><path
           id="path4517"
           style="font-size:12.80000019px;font-variant:normal;font-stretch:normal;text-align:center;text-anchor:middle;stroke:#00ff00;font-family:Ubuntu;-inkscape-font-specification:Ubuntu"
           d="m 855.75566,-616.23219 c 0.27307,-0.0683 0.63573,-0.14079 1.088,-0.2176 0.45227,-0.0768 0.9728,-0.11519 1.5616,-0.1152 0.52907,10e-6 0.96853,0.0768 1.3184,0.2304 0.34986,0.14507 0.6272,0.35414 0.832,0.6272 0.21333,0.26454 0.36266,0.58454 0.448,0.96 0.0853,0.37547 0.128,0.78934 0.128,1.2416 l 0,3.7376 -1.1904,0 0,-3.4816 c 0,-0.40959 -0.0299,-0.75946 -0.0896,-1.0496 -0.0512,-0.29013 -0.1408,-0.52479 -0.2688,-0.704 -0.128,-0.17919 -0.29867,-0.30719 -0.512,-0.384 -0.21333,-0.0853 -0.47787,-0.12799 -0.7936,-0.128 -0.128,10e-6 -0.26027,0.004 -0.3968,0.0128 -0.13653,0.009 -0.2688,0.0213 -0.3968,0.0384 -0.11947,0.009 -0.2304,0.0213 -0.3328,0.0384 -0.0939,0.0171 -0.16213,0.0299 -0.2048,0.0384 l 0,5.6192 -1.1904,0 0,-6.464"
           inkscape:connector-curvature="0" /><path
           id="path4519"
           style="font-size:12.80000019px;font-variant:normal;font-stretch:normal;text-align:center;text-anchor:middle;stroke:#00ff00;font-family:Ubuntu;-inkscape-font-specification:Ubuntu"
           d="m 864.21925,-616.42419 2.5216,0 0,0.9984 -2.5216,0 0,3.072 c 0,0.3328 0.0256,0.61014 0.0768,0.832 0.0512,0.21334 0.128,0.384 0.2304,0.512 0.1024,0.11947 0.2304,0.2048 0.384,0.256 0.1536,0.0512 0.3328,0.0768 0.5376,0.0768 0.3584,0 0.64427,-0.0384 0.8576,-0.1152 0.22187,-0.0853 0.37547,-0.14506 0.4608,-0.1792 l 0.2304,0.9856 c -0.11947,0.0597 -0.32853,0.13227 -0.6272,0.2176 -0.29867,0.0939 -0.64,0.1408 -1.024,0.1408 -0.45227,0 -0.82773,-0.0555 -1.1264,-0.1664 -0.29013,-0.11947 -0.5248,-0.2944 -0.704,-0.5248 -0.1792,-0.2304 -0.3072,-0.512 -0.384,-0.8448 -0.0683,-0.34133 -0.1024,-0.73386 -0.1024,-1.1776 l 0,-5.9392 1.1904,-0.2048 0,2.0608"
           inkscape:connector-curvature="0" /><path
           id="path4521"
           style="font-size:12.80000019px;font-variant:normal;font-stretch:normal;text-align:center;text-anchor:middle;stroke:#00ff00;font-family:Ubuntu;-inkscape-font-specification:Ubuntu"
           d="m 870.71326,-616.56499 c 0.1024,10e-6 0.2176,0.009 0.3456,0.0256 0.13653,0.009 0.2688,0.0256 0.3968,0.0512 0.128,0.0171 0.2432,0.0384 0.3456,0.064 0.11093,0.0171 0.192,0.0341 0.2432,0.0512 l -0.2048,1.0368 c -0.0939,-0.0341 -0.25173,-0.0725 -0.4736,-0.1152 -0.21333,-0.0512 -0.49067,-0.0768 -0.832,-0.0768 -0.22187,10e-6 -0.44373,0.0256 -0.6656,0.0768 -0.21333,0.0427 -0.35413,0.0725 -0.4224,0.0896 l 0,5.5936 -1.1904,0 0,-6.3744 c 0.2816,-0.10239 0.63147,-0.19626 1.0496,-0.2816 0.41813,-0.0939 0.88747,-0.14079 1.408,-0.1408"
           inkscape:connector-curvature="0" /><path
           id="path4523"
           style="font-size:12.80000019px;font-variant:normal;font-stretch:normal;text-align:center;text-anchor:middle;stroke:#00ff00;font-family:Ubuntu;-inkscape-font-specification:Ubuntu"
           d="m 879.08086,-613.09619 c -10e-6,0.52907 -0.0768,1.00694 -0.2304,1.4336 -0.15361,0.42667 -0.37121,0.7936 -0.6528,1.1008 -0.27307,0.3072 -0.60161,0.54614 -0.9856,0.7168 -0.384,0.16213 -0.80214,0.2432 -1.2544,0.2432 -0.45227,0 -0.8704,-0.0811 -1.2544,-0.2432 -0.384,-0.17066 -0.7168,-0.4096 -0.9984,-0.7168 -0.27307,-0.3072 -0.4864,-0.67413 -0.64,-1.1008 -0.1536,-0.42666 -0.2304,-0.90453 -0.2304,-1.4336 0,-0.52053 0.0768,-0.99413 0.2304,-1.4208 0.1536,-0.43519 0.36693,-0.80639 0.64,-1.1136 0.2816,-0.30719 0.6144,-0.54186 0.9984,-0.704 0.384,-0.17066 0.80213,-0.25599 1.2544,-0.256 0.45226,10e-6 0.8704,0.0853 1.2544,0.256 0.38399,0.16214 0.71253,0.39681 0.9856,0.704 0.28159,0.30721 0.49919,0.67841 0.6528,1.1136 0.15359,0.42667 0.23039,0.90027 0.2304,1.4208 m -1.2416,0 c -10e-6,-0.75093 -0.17067,-1.34399 -0.512,-1.7792 -0.3328,-0.44373 -0.78934,-0.66559 -1.3696,-0.6656 -0.58027,10e-6 -1.04107,0.22187 -1.3824,0.6656 -0.3328,0.43521 -0.4992,1.02827 -0.4992,1.7792 0,0.75094 0.1664,1.34827 0.4992,1.792 0.34133,0.4352 0.80213,0.6528 1.3824,0.6528 0.58026,0 1.0368,-0.2176 1.3696,-0.6528 0.34133,-0.44373 0.51199,-1.04106 0.512,-1.792"
           inkscape:connector-curvature="0" /><path
           id="path4525"
           style="font-size:12.80000019px;font-variant:normal;font-stretch:normal;text-align:center;text-anchor:middle;stroke:#00ff00;font-family:Ubuntu;-inkscape-font-specification:Ubuntu"
           d="m 882.75246,-609.64019 c -0.73387,-0.0171 -1.2544,-0.17493 -1.5616,-0.4736 -0.3072,-0.29866 -0.4608,-0.76373 -0.4608,-1.3952 l 0,-7.9872 1.1904,-0.2048 0,8 c 0,0.19627 0.0171,0.3584 0.0512,0.4864 0.0341,0.128 0.0896,0.2304 0.1664,0.3072 0.0768,0.0768 0.1792,0.13654 0.3072,0.1792 0.128,0.0341 0.28587,0.064 0.4736,0.0896 l -0.1664,0.9984"
           inkscape:connector-curvature="0" /><path
           id="path4527"
           style="font-size:12.80000019px;font-variant:normal;font-stretch:normal;text-align:center;text-anchor:middle;stroke:#00ff00;font-family:Ubuntu;-inkscape-font-specification:Ubuntu"
           d="m 886.25246,-609.64019 c -0.73387,-0.0171 -1.2544,-0.17493 -1.5616,-0.4736 -0.3072,-0.29866 -0.4608,-0.76373 -0.4608,-1.3952 l 0,-7.9872 1.1904,-0.2048 0,8 c 0,0.19627 0.0171,0.3584 0.0512,0.4864 0.0341,0.128 0.0896,0.2304 0.1664,0.3072 0.0768,0.0768 0.1792,0.13654 0.3072,0.1792 0.128,0.0341 0.28587,0.064 0.4736,0.0896 l -0.1664,0.9984"
           inkscape:connector-curvature="0" /><path
           id="path4529"
           style="font-size:12.80000019px;font-variant:normal;font-stretch:normal;text-align:center;text-anchor:middle;stroke:#00ff00;font-family:Ubuntu;-inkscape-font-specification:Ubuntu"
           d="m 887.38446,-613.08339 c 0,-0.58879 0.0853,-1.10079 0.256,-1.536 0.17067,-0.44373 0.3968,-0.81066 0.6784,-1.1008 0.2816,-0.29013 0.60587,-0.50773 0.9728,-0.6528 0.36693,-0.14506 0.7424,-0.21759 1.1264,-0.2176 0.896,10e-6 1.58293,0.28161 2.0608,0.8448 0.47786,0.55467 0.7168,1.40374 0.7168,2.5472 0,0.0512 0,0.11947 0,0.2048 0,0.0768 -0.004,0.14934 -0.0128,0.2176 l -4.5568,0 c 0.0512,0.6912 0.25173,1.216 0.6016,1.5744 0.34987,0.3584 0.896,0.5376 1.6384,0.5376 0.41813,0 0.768,-0.0341 1.0496,-0.1024 0.29013,-0.0768 0.50773,-0.14933 0.6528,-0.2176 l 0.1664,0.9984 c -0.14507,0.0768 -0.40107,0.15787 -0.768,0.2432 -0.3584,0.0853 -0.768,0.128 -1.2288,0.128 -0.58027,0 -1.08373,-0.0853 -1.5104,-0.256 -0.41813,-0.1792 -0.76373,-0.4224 -1.0368,-0.7296 -0.27306,-0.3072 -0.47786,-0.66986 -0.6144,-1.088 -0.128,-0.42666 -0.192,-0.89173 -0.192,-1.3952 m 4.5696,-0.6528 c 0.009,-0.53759 -0.128,-0.97706 -0.4096,-1.3184 -0.27307,-0.34986 -0.6528,-0.52479 -1.1392,-0.5248 -0.27307,10e-6 -0.51627,0.0555 -0.7296,0.1664 -0.2048,0.10241 -0.37973,0.23894 -0.5248,0.4096 -0.14507,0.17067 -0.26027,0.36694 -0.3456,0.5888 -0.0768,0.22187 -0.128,0.44801 -0.1536,0.6784 l 3.3024,0"
           inkscape:connector-curvature="0" /><path
           id="path4531"
           style="font-size:12.80000019px;font-variant:normal;font-stretch:normal;text-align:center;text-anchor:middle;stroke:#00ff00;font-family:Ubuntu;-inkscape-font-specification:Ubuntu"
           d="m 897.36326,-616.56499 c 0.10239,10e-6 0.21759,0.009 0.3456,0.0256 0.13653,0.009 0.26879,0.0256 0.3968,0.0512 0.12799,0.0171 0.24319,0.0384 0.3456,0.064 0.11093,0.0171 0.19199,0.0341 0.2432,0.0512 l -0.2048,1.0368 c -0.0939,-0.0341 -0.25174,-0.0725 -0.4736,-0.1152 -0.21334,-0.0512 -0.49067,-0.0768 -0.832,-0.0768 -0.22187,10e-6 -0.44374,0.0256 -0.6656,0.0768 -0.21334,0.0427 -0.35414,0.0725 -0.4224,0.0896 l 0,5.5936 -1.1904,0 0,-6.3744 c 0.2816,-0.10239 0.63146,-0.19626 1.0496,-0.2816 0.41813,-0.0939 0.88746,-0.14079 1.408,-0.1408"
           inkscape:connector-curvature="0" /><path
           id="path4533"
           style="font-size:12.80000019px;font-variant:normal;font-stretch:normal;text-align:center;text-anchor:middle;stroke:#00ff00;font-family:Ubuntu;-inkscape-font-specification:Ubuntu"
           d="m 898.76446,-614.15859 3.1616,0 0,1.1136 -3.1616,0 0,-1.1136"
           inkscape:connector-curvature="0" /><path
           id="path4535"
           style="font-size:12.80000019px;font-variant:normal;font-stretch:normal;text-align:center;text-anchor:middle;stroke:#00ff00;font-family:Ubuntu;-inkscape-font-specification:Ubuntu"
           d="m 906.17346,-609.61459 c -0.53761,0 -1.01121,-0.0853 -1.4208,-0.256 -0.40107,-0.17066 -0.7424,-0.4096 -1.024,-0.7168 -0.27307,-0.3072 -0.47787,-0.66986 -0.6144,-1.088 -0.13654,-0.42666 -0.2048,-0.896 -0.2048,-1.408 0,-0.51199 0.0725,-0.98133 0.2176,-1.408 0.1536,-0.42666 0.36693,-0.79359 0.64,-1.1008 0.27306,-0.31573 0.60586,-0.55893 0.9984,-0.7296 0.40106,-0.17919 0.84479,-0.26879 1.3312,-0.2688 0.29866,10e-6 0.59733,0.0256 0.896,0.0768 0.29866,0.0512 0.58452,0.13227 0.8576,0.2432 l -0.2688,1.0112 c -0.17921,-0.0853 -0.38827,-0.15359 -0.6272,-0.2048 -0.23041,-0.0512 -0.47787,-0.0768 -0.7424,-0.0768 -0.66561,10e-6 -1.17761,0.20907 -1.536,0.6272 -0.34987,0.41814 -0.52481,1.02827 -0.5248,1.8304 -10e-6,0.3584 0.0384,0.68694 0.1152,0.9856 0.0853,0.29867 0.21333,0.55467 0.384,0.768 0.17919,0.21334 0.40533,0.37974 0.6784,0.4992 0.27306,0.11094 0.60586,0.1664 0.9984,0.1664 0.31573,0 0.60159,-0.0299 0.8576,-0.0896 0.25599,-0.0597 0.45652,-0.12373 0.6016,-0.192 l 0.1664,0.9984 c -0.0683,0.0427 -0.16641,0.0853 -0.2944,0.128 -0.12801,0.0341 -0.27307,0.064 -0.4352,0.0896 -0.16214,0.0341 -0.33707,0.0597 -0.5248,0.0768 -0.17921,0.0256 -0.35414,0.0384 -0.5248,0.0384"
           inkscape:connector-curvature="0" /><path
           id="path4537"
           style="font-size:12.80000019px;font-variant:normal;font-stretch:normal;text-align:center;text-anchor:middle;stroke:#00ff00;font-family:Ubuntu;-inkscape-font-specification:Ubuntu"
           d="m 911.48347,-610.62579 c 0.2816,0 0.52906,-0.004 0.7424,-0.0128 0.22186,-0.0171 0.40533,-0.0427 0.5504,-0.0768 l 0,-1.984 c -0.0853,-0.0427 -0.22614,-0.0768 -0.4224,-0.1024 -0.18774,-0.0341 -0.41814,-0.0512 -0.6912,-0.0512 -0.1792,0 -0.3712,0.0128 -0.576,0.0384 -0.19627,0.0256 -0.37974,0.0811 -0.5504,0.1664 -0.16214,0.0768 -0.29867,0.18774 -0.4096,0.3328 -0.11094,0.13654 -0.1664,0.32 -0.1664,0.5504 0,0.42667 0.13653,0.72534 0.4096,0.896 0.27306,0.16214 0.64426,0.2432 1.1136,0.2432 m -0.1024,-5.9648 c 0.47786,10e-6 0.87893,0.064 1.2032,0.192 0.33279,0.11947 0.59733,0.29441 0.7936,0.5248 0.20479,0.22187 0.34986,0.49067 0.4352,0.8064 0.0853,0.30721 0.12799,0.64854 0.128,1.024 l 0,4.16 c -0.10241,0.0171 -0.24747,0.0427 -0.4352,0.0768 -0.17921,0.0256 -0.38401,0.0512 -0.6144,0.0768 -0.23041,0.0256 -0.48214,0.0469 -0.7552,0.064 -0.26454,0.0256 -0.52907,0.0384 -0.7936,0.0384 -0.37547,0 -0.72107,-0.0384 -1.0368,-0.1152 -0.31574,-0.0768 -0.5888,-0.19626 -0.8192,-0.3584 -0.2304,-0.17066 -0.4096,-0.39253 -0.5376,-0.6656 -0.128,-0.27306 -0.192,-0.6016 -0.192,-0.9856 0,-0.36693 0.0725,-0.68266 0.2176,-0.9472 0.1536,-0.26453 0.3584,-0.47786 0.6144,-0.64 0.256,-0.16213 0.55466,-0.28159 0.896,-0.3584 0.34133,-0.0768 0.69973,-0.11519 1.0752,-0.1152 0.11946,10e-6 0.2432,0.009 0.3712,0.0256 0.128,0.009 0.24746,0.0256 0.3584,0.0512 0.11946,0.0171 0.22186,0.0341 0.3072,0.0512 0.0853,0.0171 0.14506,0.0299 0.1792,0.0384 l 0,-0.3328 c -10e-6,-0.19626 -0.0213,-0.38826 -0.064,-0.576 -0.0427,-0.19626 -0.11947,-0.36693 -0.2304,-0.512 -0.11094,-0.15359 -0.26454,-0.27306 -0.4608,-0.3584 -0.18774,-0.0939 -0.4352,-0.14079 -0.7424,-0.1408 -0.39254,10e-6 -0.73814,0.0299 -1.0368,0.0896 -0.29014,0.0512 -0.50774,0.10667 -0.6528,0.1664 l -0.1408,-0.9856 c 0.1536,-0.0683 0.4096,-0.13226 0.768,-0.192 0.3584,-0.0683 0.74666,-0.10239 1.1648,-0.1024"
           inkscape:connector-curvature="0" /><path
           id="path4539"
           style="font-size:12.80000019px;font-variant:normal;font-stretch:normal;text-align:center;text-anchor:middle;stroke:#00ff00;font-family:Ubuntu;-inkscape-font-specification:Ubuntu"
           d="m 917.45446,-610.62579 c 0.48639,0 0.84479,-0.064 1.0752,-0.192 0.23893,-0.128 0.35839,-0.3328 0.3584,-0.6144 -10e-6,-0.29013 -0.11521,-0.52053 -0.3456,-0.6912 -0.23041,-0.17066 -0.61014,-0.36266 -1.1392,-0.576 -0.25601,-0.1024 -0.50347,-0.2048 -0.7424,-0.3072 -0.2304,-0.11093 -0.43094,-0.23893 -0.6016,-0.384 -0.17067,-0.14506 -0.3072,-0.31999 -0.4096,-0.5248 -0.1024,-0.20479 -0.1536,-0.45653 -0.1536,-0.7552 0,-0.58879 0.2176,-1.05386 0.6528,-1.3952 0.4352,-0.34986 1.02826,-0.52479 1.7792,-0.5248 0.18773,10e-6 0.37546,0.0128 0.5632,0.0384 0.18773,0.0171 0.36266,0.0427 0.5248,0.0768 0.16213,0.0256 0.30293,0.0555 0.4224,0.0896 0.12799,0.0341 0.22613,0.064 0.2944,0.0896 l -0.2176,1.024 c -0.12801,-0.0683 -0.32854,-0.13653 -0.6016,-0.2048 -0.27307,-0.0768 -0.60161,-0.11519 -0.9856,-0.1152 -0.33281,10e-6 -0.62294,0.0683 -0.8704,0.2048 -0.24747,0.12801 -0.3712,0.33281 -0.3712,0.6144 0,0.14507 0.0256,0.27307 0.0768,0.384 0.0597,0.11094 0.14506,0.21334 0.256,0.3072 0.11946,0.0853 0.26453,0.16641 0.4352,0.2432 0.17066,0.0768 0.37546,0.15787 0.6144,0.2432 0.31573,0.11947 0.59733,0.23894 0.8448,0.3584 0.24746,0.11094 0.45653,0.2432 0.6272,0.3968 0.17919,0.1536 0.31573,0.34134 0.4096,0.5632 0.0939,0.21334 0.14079,0.47787 0.1408,0.7936 -1e-5,0.6144 -0.23041,1.07947 -0.6912,1.3952 -0.45227,0.31573 -1.10081,0.4736 -1.9456,0.4736 -0.58881,0 -1.0496,-0.0512 -1.3824,-0.1536 -0.3328,-0.0939 -0.55894,-0.1664 -0.6784,-0.2176 l 0.2176,-1.024 c 0.13653,0.0512 0.35413,0.128 0.6528,0.2304 0.29866,0.1024 0.69546,0.1536 1.1904,0.1536"
           inkscape:connector-curvature="0" /><path
           id="path4541"
           style="font-size:12.80000019px;font-variant:normal;font-stretch:normal;text-align:center;text-anchor:middle;stroke:#00ff00;font-family:Ubuntu;-inkscape-font-specification:Ubuntu"
           d="m 921.23447,-613.08339 c 0,-0.58879 0.0853,-1.10079 0.256,-1.536 0.17066,-0.44373 0.3968,-0.81066 0.6784,-1.1008 0.2816,-0.29013 0.60586,-0.50773 0.9728,-0.6528 0.36693,-0.14506 0.7424,-0.21759 1.1264,-0.2176 0.89599,10e-6 1.58293,0.28161 2.0608,0.8448 0.47786,0.55467 0.71679,1.40374 0.7168,2.5472 -10e-6,0.0512 -10e-6,0.11947 0,0.2048 -10e-6,0.0768 -0.004,0.14934 -0.0128,0.2176 l -4.5568,0 c 0.0512,0.6912 0.25173,1.216 0.6016,1.5744 0.34986,0.3584 0.896,0.5376 1.6384,0.5376 0.41813,0 0.76799,-0.0341 1.0496,-0.1024 0.29013,-0.0768 0.50773,-0.14933 0.6528,-0.2176 l 0.1664,0.9984 c -0.14507,0.0768 -0.40107,0.15787 -0.768,0.2432 -0.35841,0.0853 -0.76801,0.128 -1.2288,0.128 -0.58027,0 -1.08374,-0.0853 -1.5104,-0.256 -0.41814,-0.1792 -0.76374,-0.4224 -1.0368,-0.7296 -0.27307,-0.3072 -0.47787,-0.66986 -0.6144,-1.088 -0.128,-0.42666 -0.192,-0.89173 -0.192,-1.3952 m 4.5696,-0.6528 c 0.009,-0.53759 -0.12801,-0.97706 -0.4096,-1.3184 -0.27307,-0.34986 -0.65281,-0.52479 -1.1392,-0.5248 -0.27307,10e-6 -0.51627,0.0555 -0.7296,0.1664 -0.2048,0.10241 -0.37974,0.23894 -0.5248,0.4096 -0.14507,0.17067 -0.26027,0.36694 -0.3456,0.5888 -0.0768,0.22187 -0.128,0.44801 -0.1536,0.6784 l 3.3024,0"
           inkscape:connector-curvature="0" /></g></g><path
       style="fill:none;stroke:#ff0000;stroke-width:0.28346458;stroke-miterlimit:4;stroke-opacity:1;stroke-dasharray:none"
       d="m 154.96616,627.72124 c -40.8746,0.18684 -53.80434,15.27397 -61.399998,27.9 -7.28108,11.62713 0.0102,-2.7e-4 -21.15,33.225 -0.93956,1.63923 -5.60094,14.25568 6.425,19.625 12.02596,5.36933 36.922548,15.99114 52.774998,23.15 8.37543,4.16871 22.83133,7.90077 32.2,8.075 l 93.825,0.1 c 4.68632,-0.006 10.0035,3.51708 11.825,7.825 6.39205,18.02607 10.35468,30.63148 13.5,39.85 l 17.5,-26.5 14.1,9.325 -23.575,35.725 c 5.3546,7.85764 12.783,9.9778 31.8,17.775 9.0099,2.56249 16.24651,-2.99862 16.075,-12.35 1.38871,-41.9558 4.5859,-101.94895 4.075,-143.9 -0.1862,-21.91928 -20.54469,-39.80984 -42.5,-39.625 l -145.475,-0.2 z m 48.45,6.95 35.4,0 0,11.3 -35.4,0 0,-11.3 z m -100.35,24.05 9.525,5.975 -18.799998,30 -9.5,-5.975 18.774998,-30 z m 221.525,23.55 11.275,0 0,35.4 -11.275,0 0,-35.4 z m -201.475,10.2 c 0.68482,-0.0441 1.40842,0.0666 2.075,0.375 2.13312,0.98696 3.06196,3.51692 2.075,5.65 -0.98695,2.13303 -3.51692,3.06196 -5.65,2.075 -2.13312,-0.98696 -3.06195,-3.51695 -2.075,-5.65 0.67854,-1.46647 2.06842,-2.35302 3.575,-2.45 z m 174.4,20.15 c 2.3504,0 4.25,1.89965 4.25,4.25 0,2.35032 -1.8996,4.25 -4.25,4.25 -2.3503,0 -4.25,-1.89968 -4.25,-4.25 0,-2.35035 1.8997,-4.25 4.25,-4.25 z"
       id="path4163"
       inkscape:connector-curvature="0" /></g></svg>